<?xml version="1.0" encoding="utf-8"?>
<!-- Generator: Adobe Illustrator 22.1.0, SVG Export Plug-In . SVG Version: 6.00 Build 0)  -->
<svg version="1.1" id="图层_1" xmlns="http://www.w3.org/2000/svg" xmlns:xlink="http://www.w3.org/1999/xlink" x="0px" y="0px"
	 viewBox="0 0 800 600" style="enable-background:new 0 0 800 600;" xml:space="preserve">
<path d="M346.5,94.5c-27.1,37.9-69,109.6-92,158.3c-35.2,75.7-41.9,102.8-36.5,163.7c5.4,60.9,13.5,81.2,46,109.6
	c54.1,47.3,94.7,62.2,152.8,51.4c52.8-9.5,128.5-78.5,151.5-136.6c33.8-90.6-12.2-227.2-121.7-354.4l-50-59.5L346.5,94.5z
	 M462.8,141.9c62.2,90.6,97.4,163.7,86.6,182.6c-5.4,8.1-281.3,12.2-303,5.4C226.1,321.8,373.5,63.4,400.6,58
	C401.9,58,430.3,95.9,462.8,141.9z M561.5,375.9c9.5,24.3-28.4,104.2-69,142c-41.9,39.2-125.8,50-179.9,21.6
	c-71.7-36.5-115-162.3-59.5-173.1c12.2-2.7,85.2-5.4,162.3-6.8C523.7,356.9,556.1,361,561.5,375.9z"/>
</svg>
