<?xml version="1.0" encoding="utf-8"?>
<!-- Generator: Adobe Illustrator 22.1.0, SVG Export Plug-In . SVG Version: 6.00 Build 0)  -->
<svg version="1.1" id="图层_1" xmlns="http://www.w3.org/2000/svg" xmlns:xlink="http://www.w3.org/1999/xlink" x="0px" y="0px"
	 viewBox="0 0 800 600" style="enable-background:new 0 0 800 600;" xml:space="preserve">
<path d="M388.9,32.9c0,0,0,1,0,2.1c0,0,0,1,0,2.1c-3.1,11.4-25,40.6-25,40.6c-15.6,20.8-12.5,23.9-20.8,36.4
	c-7.3,11.4-12.5,18.7-15.6,22.9c0,0-9.4,27.1-36.4,66.6c-68.7,101-85.4,209.2-44.8,291.4c22.9,46.8,67.7,73.9,136.4,82.2
	c69.7,8.3,114.5-15.6,148.8-83.3c50-97.8,23.9-236.3-70.8-377.8c-20.8-32.3-42.7-66.6-48.9-77c-10.4-17.7-20.8-18.7-22.9-17.7
	C387.8,22.5,388.9,31.8,388.9,32.9z M422.2,134.9c22.9,27.1,74.9,130.1,82.2,161.3c5.2,26,2.1,33.3-17.7,42.7
	c-13.5,6.2-33.3,8.3-44.8,4.2c-10.4-4.2-31.2-6.2-45.8-4.2c-61.4,6.2-115.5,7.3-121.8,1c-3.1-4.2,1-27.1,10.4-50
	c22.9-58.3,115.5-198.8,120.7-183.2C407.6,114.1,414.9,126.6,422.2,134.9z M511.7,415.9c-5.2,42.7-31.2,82.2-63.5,98.9
	c-42.7,21.9-117.6,20.8-138.4-3.1c-17.7-18.7-48.9-87.4-48.9-105.1c0-12.5,45.8-16.7,166.5-16.7
	C515.9,389.9,515.9,389.9,511.7,415.9z"/>
</svg>
