<?xml version="1.0" encoding="utf-8"?>
<!-- Generator: Adobe Illustrator 22.1.0, SVG Export Plug-In . SVG Version: 6.00 Build 0)  -->
<svg version="1.1" id="图层_1" xmlns="http://www.w3.org/2000/svg" xmlns:xlink="http://www.w3.org/1999/xlink" x="0px" y="0px"
	 viewBox="0 0 800 600" style="enable-background:new 0 0 800 600;" xml:space="preserve">
<path d="M339.9,62.2c8.3,13.1,10.7,30.9,4.8,44s-9.5,26.2-8.3,29.8c0,3.6-22.6,33.3-50,65.5C234,259.8,234,259.8,209,237.2
	c-38.1-34.5-39.3-19,0,58.3c19,39.3,41.7,108.3,50,154.7l14.3,83.3l47.6-2.4c26.2-1.2,79.7-6,117.8-10.7c46.4-4.8,67.8-3.6,63.1,4.8
	c-10.7,15.5,22.6,42.8,39.3,32.1c6-3.6,11.9-14.3,11.9-21.4c0-8.3,19-73.8,41.7-145.2c22.6-72.6,39.3-139.2,35.7-149.9
	c-15.5-47.6-141.6-59.5-254.7-23.8c-40.5,11.9-72.6,19-72.6,14.3s19-26.2,41.7-48.8c45.2-44,54.7-92.8,22.6-123.8
	C342.3,32.5,323.3,34.9,339.9,62.2z M544.6,237.2c20.2,7.1,16.7,54.7-10.7,176.1c-15.5,71.4-28.6,95.2-36.9,69
	c-7.1-17.9-40.5-17.9-116.6,2.4c-78.5,21.4-89.3,15.5-89.3-47.6c0-50,1.2-51.2,27.4-39.3c22.6,9.5,47.6,7.1,114.2-13.1
	c46.4-13.1,82.1-29.8,78.5-36.9c-10.7-15.5-35.7-14.3-134.5,9.5c-95.2,21.4-109.5,16.7-109.5-39.3c0-25,9.5-30.9,104.7-63.1
	C437.5,231.2,511.3,224.1,544.6,237.2z"/>
</svg>
