<?xml version="1.0" encoding="utf-8"?>
<!-- Generator: Adobe Illustrator 22.1.0, SVG Export Plug-In . SVG Version: 6.00 Build 0)  -->
<svg version="1.1" id="图层_1" xmlns="http://www.w3.org/2000/svg" xmlns:xlink="http://www.w3.org/1999/xlink" x="0px" y="0px"
	 viewBox="0 0 800 600" style="enable-background:new 0 0 800 600;" xml:space="preserve">
<path d="M375.5,64.4c-3,20.9-19.9,57.8-37.9,81.7c-70.8,92.7-67.8,82.7-65.8,228.2c2,88.7,7,135.5,14,137.5
	c13,4,21.9-14.9,29.9-64.8c13-79.7,91.7-155.5,154.5-149.5c55.8,5,61.8,45.8,18.9,115.6l-20.9,33.9l-23.9-25.9
	c-26.9-28.9-46.8-32.9-64.8-11c-10,12-8,20.9,14,48.8l25.9,34.9l-36.9,35.9c-19.9,18.9-32.9,37.9-29.9,40.9c9,9,53.8-21.9,66.8-45.8
	c6-11,15.9-19.9,22.9-19.9c21.9,0,64.8-47.8,90.7-104.6c25.9-53.8,25.9-55.8,9-84.7c-14.9-26.9-22.9-29.9-65.8-29.9
	c-66.8,0-156.5,49.8-156.5,86.7c0,16.9-15.9,16.9-22.9-1c-3-8-3-47.8,0-87.7c6-75.7,12-85.7,65.8-120.6
	c39.9-25.9,60.8-74.7,47.8-109.6C395.5,15.6,383.5,19.6,375.5,64.4z"/>
</svg>
