<?xml version="1.0" encoding="utf-8"?>
<!-- Generator: Adobe Illustrator 22.1.0, SVG Export Plug-In . SVG Version: 6.00 Build 0)  -->
<svg version="1.1" id="图层_1" xmlns="http://www.w3.org/2000/svg" xmlns:xlink="http://www.w3.org/1999/xlink" x="0px" y="0px"
	 viewBox="0 0 800 600" style="enable-background:new 0 0 800 600;" xml:space="preserve">
<path d="M274.9,52.5c-3.6,14.3-9.8,40.3-14.3,57.2c-4.5,17-8.1,59.9-8.1,94.8v62.6l42,35.8c84.1,68.9,92.1,79.6,92.1,119
	c0,42.9-7.2,44.7-44.7,13.4c-15.2-13.4-30.4-20.6-34-17c-6.3,6.3,19.7,31.3,59,58.1c17.9,11.6,25,34,28.6,89.4
	c0,10.7,2.7,9.8,9.8-2.7c5.4-8.1,6.3-23.3,3.6-33.1c-4.5-12.5,1.8-25.9,21.5-45.6c33.1-32.2,54.6-62.6,54.6-74.2
	c0-5.4-14.3,5.4-32.2,24.2c-17.9,17.9-35.8,33.1-40.3,33.1c-8.9,0-10.7-53.7-2.7-75.1c2.7-8.1,9.8-14.3,16.1-14.3
	c12.5,0,85-75.1,108.2-110.9c13.4-22.4,15.2-40.3,11.6-127.9C541.4,48,536,18.5,526.2,30.1c-1.8,1.8,0,50.1,2.7,106.4l5.4,102
	l-30.4,41.1c-34,45.6-79.6,82.3-93,74.2c-4.5-2.7-6.3-19.7-2.7-37.6c2.7-17.9,0.9-44.7-2.7-59c-9.8-30.4-11.6-25-13.4,33.1
	c-1.8,65.3-8.1,65.3-80.5,0.9l-42-36.7l8.1-110.9C286.5,32.8,284.7,6,274.9,52.5z"/>
</svg>
