<?xml version="1.0" encoding="utf-8"?>
<!-- Generator: Adobe Illustrator 22.1.0, SVG Export Plug-In . SVG Version: 6.00 Build 0)  -->
<svg version="1.1" id="图层_1" xmlns="http://www.w3.org/2000/svg" xmlns:xlink="http://www.w3.org/1999/xlink" x="0px" y="0px"
	 viewBox="0 0 800 600" style="enable-background:new 0 0 800 600;" xml:space="preserve">
<path d="M388.4,132.9c0,89.9-1.6,105.2-12.1,105.2c-7.3,0-21.9-8.9-31.6-19.4c-16.2-15.4-20.2-30.8-25.1-82.6
	c-3.2-34.8-7.3-71.2-9.7-79.3c-4-14.6-4.9-14.6-13-0.8c-10.5,19.4-0.8,148.1,13.8,170c6.5,9.7,25.9,23.5,43.7,31.6
	c31.6,13.8,32.4,16.2,30.8,51.8l-0.8,38l-62.3,8.9c-34.8,4-65.6,11.3-68.8,14.6c-13,13,19.4,19.4,76.1,16.2l59.9-4l-1.6,89.9
	c-0.8,48.6,0.8,91.5,4,94.7c13.8,13.8,21-23.5,21-105.2v-86.6l22.7-0.8c12.1,0,40.5,0,63.1,0.8c30,0.8,42.9-2.4,46.1-10.5
	c7.3-19.4-1.6-21.9-68.8-21.9h-63.1v-39.7c0-34,2.4-40.5,18.6-44.5c40.5-10.5,62.3-38.9,68.8-89.9s1.6-120.6-8.9-131.1
	c-13.8-13-21.9,21-21.9,90.7c0,78.5-5.7,93.1-38,93.1c-18.6,0-18.6-0.8-18.6-97.1c0-80.9-1.6-97.1-12.1-97.1S388.4,44.7,388.4,132.9
	z"/>
</svg>
