<?xml version="1.0" encoding="utf-8"?>
<!-- Generator: Adobe Illustrator 22.1.0, SVG Export Plug-In . SVG Version: 6.00 Build 0)  -->
<svg version="1.1" id="图层_1" xmlns="http://www.w3.org/2000/svg" xmlns:xlink="http://www.w3.org/1999/xlink" x="0px" y="0px"
	 viewBox="0 0 800 600" style="enable-background:new 0 0 800 600;" xml:space="preserve">
<path d="M488.6,384.7c-10.6-8.2-27.8-15.5-38.4-15.5c-22.9,0-30.3-21.3-24.5-69.5c1.6-18,4.1-40.9,4.1-49.9
	c0.8-10.6,13.1-26.2,32.7-39.3c18-12.3,34.3-27.8,36.8-34.3c5.7-15.5-34.3-99.8-52.3-109.6c-18-9.8-30.3-10.6-35.2-2.5
	c-2.5,4.1-4.1,37.6-4.9,76.1c-0.8,62.2-2.5,71.2-18.8,81.8c-19.6,13.1-89.1,33.5-98.1,27.8c-2.5-1.6,4.1-27.8,14.7-58.1
	c21.3-58.1,24.5-84.2,11.4-84.2c-4.1,0-8.2,5.7-8.2,12.3s-7.4,26.2-16.4,42.5c-9,17.2-16.4,35.2-16.4,40.1c0,4.9-7.4,17.2-16.4,27.8
	c-17.2,19.6-13.1,33.5,16.4,49.1c14.7,8.2,62.2-1.6,95.7-18c10.6-4.9,21.3-7.4,23.7-4.1c2.5,2.5,2.5,31.9-0.8,65.4l-5.7,61.3
	l-48.3,18.8c-26.2,10.6-48.3,22.9-48.3,27.8c0.8,9.8,9.8,22.1,61.3,81c58.9,67.9,70.3,62.2,77.7-36c4.1-61.3,4.1-61.3,28.6-63.8
	C504.9,407.6,510.7,402.7,488.6,384.7z M428.1,120.6c2.1-29,4.5-34.3,7.4-34.8c1.3-0.2,3,0.4,6.7,5c8.6,10.8,21.4,46.2,27.3,62.9
	c2.6,7.3,3.6,11.3,2.5,16.6c-2,8.8-9.2,14-19.9,21.5c-9.4,6.7-16.3,11.6-20.7,9.1c-3.3-1.9-3.6-7.3-4.1-18.2
	c-0.4-7.3,0.5-9.2,0.3-19.1C427.4,149.8,426.3,145.1,428.1,120.6z M359.4,490.5c-15-15.6-27.8-27.3-36.4-45.5
	c-1.6-3.4-3.6-8.2-1.7-12.5c2.6-5.6,10.5-6.7,19.1-8.2c33.7-6.1,40.1-13.4,46.3-8.3c3.9,3.2,2.1,6.6,3.3,29.8
	c1.1,20.4,3.3,31.8,0.8,51.3c-1.5,12.4-3.3,14.8-5.4,15.6C380.7,514.5,375.2,506.9,359.4,490.5z"/>
</svg>
