<?xml version="1.0" encoding="utf-8"?>
<!-- Generator: Adobe Illustrator 22.1.0, SVG Export Plug-In . SVG Version: 6.00 Build 0)  -->
<svg version="1.1" id="图层_1" xmlns="http://www.w3.org/2000/svg" xmlns:xlink="http://www.w3.org/1999/xlink" x="0px" y="0px"
	 viewBox="0 0 800 600" style="enable-background:new 0 0 800 600;" xml:space="preserve">
<path d="M358.2,73.2c-4.6,9.1-11.4,47-14.4,85.7c-3.8,38.7-13.7,90.3-22.8,114.6c-19,53.1-19.7,67.5-5.3,79.7
	c13.7,11.4,19.7,0.8,37.9-69c15.2-55.4,26.6-70.6,49.3-63c36.4,11.4,47.8,85,28.1,187.4c-25.8,133.5-22.8,198.8,5.3,129
	c15.9-40.2,50.8-207.1,50.8-244.3c0-26.6-4.6-34.9-41.7-69c-46.3-44-64.5-81.9-64.5-132C381,55.7,371.9,48.2,358.2,73.2z"/>
</svg>
