<?xml version="1.0" encoding="utf-8"?>
<!-- Generator: Adobe Illustrator 22.1.0, SVG Export Plug-In . SVG Version: 6.00 Build 0)  -->
<svg version="1.1" id="图层_1" xmlns="http://www.w3.org/2000/svg" xmlns:xlink="http://www.w3.org/1999/xlink" x="0px" y="0px"
	 viewBox="0 0 800 600" style="enable-background:new 0 0 800 600;" xml:space="preserve">
<path d="M292.6,61.6c-3.2,3.2-5.6,15.9-5.6,27.8c0,27,20.7,42.9,78.7,59.6c23.1,7.2,49.3,19.9,58,28.6c27,27,15.9,46.9-57.3,95.4
	c-70,46.9-90.6,66.8-81.9,79.5c8,13.5,51.7-0.8,108.1-34.2c43.7-26.2,56.5-30.2,62-22.3c6.4,10.3,11.9,147.1,8,186.1
	c-0.8,8.7,0.8,31,3.2,49.3c4.8,35,18.3,43.7,35,23.9c11.1-14.3,12.7-311.7,1.6-353.8c-11.9-41.3-40.6-66.8-124-105.8
	c-39-19.1-74-35.8-76.3-36.6C299.8,57.6,295.8,59.2,292.6,61.6z"/>
</svg>
