<?xml version="1.0" encoding="utf-8"?>
<!-- Generator: Adobe Illustrator 22.1.0, SVG Export Plug-In . SVG Version: 6.00 Build 0)  -->
<svg version="1.1" id="图层_1" xmlns="http://www.w3.org/2000/svg" xmlns:xlink="http://www.w3.org/1999/xlink" x="0px" y="0px"
	 viewBox="0 0 800 600" style="enable-background:new 0 0 800 600;" xml:space="preserve">
<path d="M274.2,67.6c-5.7,15.2,2.5,23.4,23.4,23.4c29.7,0,34.1,17.7,25.3,107.4c-8.2,80.2-8.2,347.5-0.6,360.1
	c2.5,4.4,8.2,5.7,12.6,3.2c5.7-3.8,6.9-25.3,3.8-87.8c-4.4-75.2,3.2-267.2,12.6-349.4l3.8-32.2l32.9-2.5
	c43.6-3.2,73.9,3.8,87.8,20.8c9.5,12,10.7,20.2,6.3,49.3c-10.7,73.9,7.6,385.4,23.4,401.2c17.1,17.1,19-8.2,9.5-123.2
	c-8.8-101.1-12.6-259.6-7.6-327.9c1.3-20.2-1.3-23.4-24-34.7C448.5,58.1,280.5,51.8,274.2,67.6z"/>
</svg>
