<?xml version="1.0" encoding="utf-8"?>
<!-- Generator: Adobe Illustrator 22.1.0, SVG Export Plug-In . SVG Version: 6.00 Build 0)  -->
<svg version="1.1" id="图层_1" xmlns="http://www.w3.org/2000/svg" xmlns:xlink="http://www.w3.org/1999/xlink" x="0px" y="0px"
	 viewBox="0 0 800 600" style="enable-background:new 0 0 800 600;" xml:space="preserve">
<path d="M350.1,201c0,2.7,3.8,7.6,8.2,11.4c10.3,8.7,7.1,19.6-19.6,63.6c-12,19-21.2,35.4-21.2,37c0,2.7-19,29.9-50.6,73.4
	c-19.6,26.6-20.1,27.7-5.4,17.4c33.7-24.5,90.3-96.8,127.3-163.2l13.1-23.9l-13.1-10.3C375.7,196.1,350.1,192.3,350.1,201z"/>
<path d="M379,352.2c-50.6,3.8-31,10.9,40.8,14.1c75.1,3.3,143.6,21.2,146.8,38.6c1.6,6.5,8.2,8.7,26.1,8.7
	c21.8,0,23.9-1.1,23.9-12.5c0-7.1-4.4-16.9-10.3-22.3C586.7,360.9,456.2,345.6,379,352.2z"/>
</svg>
