<?xml version="1.0" encoding="utf-8"?>
<!-- Generator: Adobe Illustrator 22.1.0, SVG Export Plug-In . SVG Version: 6.00 Build 0)  -->
<svg version="1.1" id="图层_1" xmlns="http://www.w3.org/2000/svg" xmlns:xlink="http://www.w3.org/1999/xlink" x="0px" y="0px"
	 viewBox="0 0 148 92" style="enable-background:new 0 0 148 92;" xml:space="preserve">
<g transform="translate(0.000000,92.000000) scale(0.100000,-0.100000)">
	<path d="M738,693c-25-6-54-71-42-92c21.8-38.2,6-64.8,13-111c4.7-31.4,8.4-77.3,1.2-135.3c-11.7-4-28.3-9.2-48.7-13.6
		c-27.9-6.1-46.5-7.1-74-8.8c-40-2.3-49,0.5-53.7,6.9c-4.6,6.3-3.9,14.1-2.9,25.8c1.3,14.6,4.8,20.3,12,42
		c12.6,37.9,12,50.6,9.7,57.3c-1.6,4.4-2.8,8.9-4.4,13.2c-2.7,7.5-3.7,9.2-3.3,12.5c0.5,4.1,2.8,7,1.3,8.8c-0.8,0.9-2.1,1.1-3.3,1.2
		c-8.9,0.2-18.6-7-20.5-8.5c-4.9-3.8-8.5-6.6-10.3-11.6c-0.7-1.9-6.5-15-7.2-15.9c-0.8-1.1-2.6-3.2-4.8-6.4
		c-10.7-15.3-19.6-72.7-21.2-84.6c-1.8-13.3-3.6-27.2-7-42.7c-6.5-29.6-15.9-52.7-23.1-68c-5.3-7.6-6.6-16.6-2.7-22.4
		c4.8-7.2,15.6-6.4,22.8-5.9c2.9,0.2,13,1.1,22.3,8.3c9.2,7.1,9.1,13.7,14.9,20.4c9.4,10.9,24.9,10.9,43.3,11.6
		c0,0,30.7,1.1,83.5,6.7c39.4,4.1,32.7,9.2,64.3,11.5c21.1,1.6,45.3-0.8,92.7-5.5c14.5-1.5,30.6-6.4,53-6c53,1,74-2,92-13
		c8-5,34-5,68,1c5,0,46,35,44,105c-2,51-6,71-19,80c-10,7-19,34-31,50c-20,25-25,26-48,16c-13.8-6.2-21.9-13.5-24.1-22.2
		c-3.7-14.9,10.9-29.1,19.1-40.8c13-18.6,22.7-51.2,6-112c-27.4,7-49.7,9.2-64.9,9.8c-15.1,0.7-20.8-0.3-39.8,0.7
		c-32,1.7-48,2.5-54.9,7.2c-10.1,6.8-16.9,21.1-9.3,142c2.8,44,5.6,71.6,6.5,80.8c3.5,33.6,7.2,61.7,10.2,82
		c-0.6,4.3-3,19.4-15.3,27.6C764.7,707,741.5,693.8,738,693z"/>
</g>
</svg>
