<?xml version="1.0" encoding="utf-8"?>
<!-- Generator: Adobe Illustrator 22.1.0, SVG Export Plug-In . SVG Version: 6.00 Build 0)  -->
<svg version="1.1" id="图层_1" xmlns="http://www.w3.org/2000/svg" xmlns:xlink="http://www.w3.org/1999/xlink" x="0px" y="0px"
	 viewBox="0 0 148 102" style="enable-background:new 0 0 148 102;" xml:space="preserve">
<g transform="translate(0.000000,102.000000) scale(0.100000,-0.100000)">
	<path d="M984.7,369.5c-0.4,94.5-3.6,127.7-4.7,191.2c-0.1,7.7-1,16.4-2.5,42.3c-2.5,43.7-2.8,52.6-3,61.6
		c-0.4,19.3-0.7,30-0.2,44.1c0.4,11.7-0.1,23.4,0.3,35.1c0,0.8,0.2,4.2-0.2,8.7c-0.3,3.8-0.7,7.2-2.1,11.4c-2.1,6-5.2,9.7-5.8,10.5
		c-1.9,2.3-3.8,3.8-4.7,4.5c-1.6,1.3-6.3,4.8-13.4,5.9c-3.1,0.5-10.2,1.6-16.5-2.4c-2.6-1.7-4.1-3.7-5.1-4.9
		c-0.7-0.9-3.2-4.3-5-10.8c-1.5-5.6-1.6-10.1-1.6-11.9c-0.2-17.9,0.7-29.2,0.7-29.2c2.1-26.7,0.7-9.8,2-26.8
		c1.6-20.4,4.4-52.5,10.1-96.7c3-23.5,2.6-51.6,3.3-107.8c0.8-69.1,1.1-85.3,0.5-97.7c-0.9-19-1.3-38-1.6-57.1
		c0,0-0.3-20.2-9.9-41.4c-2.3-5.1-5.2-10.4-10.3-11.6c-4.3-1-8.7,1.1-16,7c-9.4,7.6-16.1,15.6-24.8,27.5c-4.2,5.8-4.7,6.7-20.1,29
		c-4.8,6.9-7.1,10.2-7.8,11.3c-9.9,14.8-25.4,39.6-39.4,71.2c-15.7,35.4-21.9,61.9-24,71.1c-0.3,1.3-1.4,6.3-2.6,12.9
		c-3.6,20.3-5.5,54.6-5.5,54.6c-0.5,8.8-0.3,7.6-1.7,38.5c-0.8,19-1.2,29.3-1.7,38.3c-2.7,46.9-5.6,58.7-6.1,165.9c0,0,0,0,0,0
		c1.1,19.6-0.3,32.6-3.6,55.1c-0.2,1.4-1,6.7-2.5,13.3c-0.6,2.8-1.1,4.3-1.4,5.3c-1.4,4.8-2.3,7.7-4.6,10.8c-1,1.3-1.8,2.3-2.7,3.1
		c-1.6,1.4-3,2.1-3.5,2.3c-2.5,1.2-4.6,1.3-6.5,1.4c-2,0.1-3.5-0.1-5.3-0.3c-1.6-0.2-3.6-0.4-6.2-1.2c-0.4-0.1-2.7-0.8-5.1-1.9
		c-0.6-0.3-1.8-0.9-3.3-1.8c-0.1-0.1-0.2-0.2-0.3-0.2c-0.8-1.2-2.1-3-3-5.5c-1-2.9-1.7-6.7,0-17.5c0.6-4,1-5.4,2-10.3
		c0,0,1.2-6.1,2.8-17c2.7-17.5,1-39.8,2.6-70.6c0.4-7.2,0.4-4.2,1.5-20.4c1.1-16.1,2.3-37.6,3.5-70c1.5-39.7,1.5-69.3,1.5-79.3v0
		c0.3-14.2,0.2-32.6-1.4-53.9c-1-12.8-2.3-30.5-6.4-51.7c-4.5-23.2-11.1-40.5-23.6-75.4c-7.3-20.2-15.9-42.2-27.4-66.5
		c-7.1-15-2.7-4.2-19.9-37.2c-9-17.2-14.6-28.8-27.3-36.9c-10.2-6.6-16.5-5.5-18.8-4.9c-3.3,0.9-6.7,2.9-10,6.9
		c-17,20.7-17.7,55.5-17.7,55.5c-0.6,29.5-7.4,58.6-9.4,88c-4.4,63.5-7.9,56.8-11.7,118.7c-2.7,43.2-4,64.8-2.8,90.4
		c1,20.7-0.2,41.5,1.9,62.1c0,0,0.4,9.3-0.3,22.9c0,0-0.4,8.5-2.7,20.8c0,0-1.1,6-3.3,10.8c-1.2,2.6-2.7,4.8-2.7,4.8
		c-0.1,0.1-0.2,0.2-0.2,0.3c-3,1.2-5.6,1.5-7.3,1.6c-7.5,0.3-13.2-3.6-15.8-5.4c-2-1.3-3.4-2.6-4.1-3.3c-0.9-0.8-4.3-4.2-7.4-10.7
		c-1.9-4.1-2.8-7.6-3.4-10.1c-3-12.9-3.2-24.3-3.3-30.1c0,0-0.2-10.9,0.9-20.1c0-0.1,0.1-1.1,0.3-2.4c0.3-2.6,0.5-4.5,0.7-6.6
		c0.2-2.6,0.3-4.6,0.4-6c0,0,0.2-3.5,0.3-7c0.3-13.3-0.8-96.1-0.8-96.1c0-2.3-0.1-6.4-0.1-11.7c0-0.8,0-11.5,0.4-22.6
		c0.6-17.9,2-34.9,2.2-37.4c3.8-47.3,0.1-96.9,6.6-136.7c3-18.4,6.4-33.6,12.4-54.2c2.7-9.1,6.4-21.8,11-32.8
		c5.2-12.6,10.4-24.9,21.2-38.5c10.8-13.5,21.6-21.2,23.8-22.8c13.5-9.5,25.3-13.1,43.5-18.6c12.9-3.9,24.6-6.1,47.8-10.6
		c9-1.7,17.3-3.3,28.7-5c18.5-2.7,32.4-3.6,35.4-3.8c10.5-0.7,24.5-1.6,43-0.7c5.8,0.3,18.9,1.1,35.5,3.7
		c14.4,2.3,28.5,4.4,46.1,10.6c20.1,7.1,34,15.6,36.9,17.4c12.5,7.8,21.2,15.6,25.2,19.1c8.1,7.3,14.6,14.5,16.1,16.2
		c0.8,0.9,1.5,1.7,1.9,2.1c3.6,4.2,10.5,12.4,24.7,37c5.8,12.3,8.5,23.4,10.3,33C984.7,336,984.7,357.8,984.7,369.5z M656.5,248.8
		c-0.2,1.6-0.3,4.9,6,13.3c5.3,7.1,10.3,11.5,10.8,11.9c5,4.4,11.5,12.6,24.5,29c8.4,10.5,12.6,15.8,16.9,22.4
		c8.3,13.1,11.5,21.9,24.9,48.7c0,0,2.1,7.3,10.7,19.8c2,3,4.3,6,7.6,6.2c1.7,0.1,3.9-0.6,8.2-5c5.4-5.7,8.2-11.2,10.1-14.9
		c2.9-5.6,6.1-11.1,9.2-16.7c2.6-4.8,8.2-15.3,15.1-26.7c4-6.6,6.6-11,10.4-16.6c3.3-4.8,10.3-14.7,20.8-26.2
		c6.9-7.6,13.6-13.9,26.9-26.4c13.1-12.4,18.1-16.6,17.1-21.7c-0.9-5.1-7-7.9-14.4-11.3c-9.2-4.3-17.1-5.6-28-7.1
		c-15.2-2.1-22.8-3.2-33-4c-19.4-1.4-34.4-1.1-39.7-0.9c-7.6,0.2-18.2,1.2-39,3.3c-19.1,1.8-40.8,4.1-56.7,13.5
		C661.6,241.1,657.2,244.2,656.5,248.8z"/>
</g>
<path d="M58.5,80.9"/>
</svg>
