<?xml version="1.0" encoding="utf-8"?>
<!-- Generator: Adobe Illustrator 22.1.0, SVG Export Plug-In . SVG Version: 6.00 Build 0)  -->
<svg version="1.1" id="图层_1" xmlns="http://www.w3.org/2000/svg" xmlns:xlink="http://www.w3.org/1999/xlink" x="0px" y="0px"
	 viewBox="0 0 149 89" style="enable-background:new 0 0 149 89;" xml:space="preserve">
<g transform="translate(0.000000,89.000000) scale(0.100000,-0.100000)">
	<path d="M717,714c-4-4.1-3.1-13.1-0.4-19.9c2.9-7.1,7.9-12.6,12.4-10.1c8.4-6.9,20.9-19.1,30.4-37.7c10.2-19.9,11.9-37.4,13.4-55.5
		c0.8-9.2,1.6-24.1-3.1-69.8c-6.6-64.5-10.4-56-9.8-79c0.9-33.5,7-55.6-4.6-69.1c-3.6-4.2-9.1-6.1-17.4-8.9c-13-4-24-7-25-6
		c-1,0-23-6-47-13c-25-8-47-11-50-7c-2,4-7,26-11,50c-4,23-12.7,34.6-19,49c-6.6,15.3-5.4,23.4-14,29c-6.3,4.1-10.5,6.3-13.1,5
		c-7-3.3-4-20.1-4.9-42c-1.1-26-7.3-45.4-12.2-60.8c-8.7-27.1-14.2-26.6-24.6-56.9c-9.4-27.4-15.8-46.1-6.9-57.9
		c7.9-10.4,24-12,43.7-9.4c0,0,0,0,0,0c4.5,0.9,42.8,8.4,61.5,19c5.7,3.2,7.5,5.6,16.3,10.1c7.2,3.7,14.5,6.4,14.3,9.9
		c-0.1,1.5-0.3,3.3-3,7.8c-3,5,11.1,6.4,40.2,7.4c4.8,0.2,57.1,7.5,68.9,9.1c16,2.1,26.7,3.7,40.1,6.9c1.1,0.3,2.1,0.5,3,0.8
		c9.2,2.4,14.8,4.3,28.4,7.7c7,1.7,15.5,3.6,28.1,5.9c45,8.3,32.5,2.2,69.2,9.3c25.5,5,44.7,10.1,52,1.8c2.7-3.1,2.1-8.7,1-17.8
		c-2.1-19.7-0.9-32.1,5.8-39.6c9.4-10.6,26.7-10.6,35.2-10.4c4.1,0.1,28.4,1,42.1,17c15.7,18.4-0.2,36.1,3.5,87.4
		c3.1,42.4,16.1,58.2,3.9,75.6c-5.7,8.2-7.9,3.7-32.4,22.4c-23.1,17.7-34.6,26.5-39.1,31.6c-0.3,0.3-12.9,14.5-23,14
		c-0.6,0-1-0.1-1.4-0.3C961,515.3,971,491,978,486c6-4,16-52,14-71c-1.7-15.9-3-23.9-8.3-29c-10.1-9.6-22.4-3-62.1-1.9
		c-34.5,1-63-1.7-63-1.7c-23.4-2.2-27.4-4.5-32.8-0.8c-8.4,5.7-11.5,20.2,1.2,89.4c7.1,38.8,2.9,152.2,7,167
		c4.2,14.8-6.8,28.1-56,56C758.3,705.2,726.3,723.4,717,714z"/>
</g>
</svg>
