<?xml version="1.0" encoding="utf-8"?>
<!-- Generator: Adobe Illustrator 22.1.0, SVG Export Plug-In . SVG Version: 6.00 Build 0)  -->
<svg version="1.1" id="图层_1" xmlns="http://www.w3.org/2000/svg" xmlns:xlink="http://www.w3.org/1999/xlink" x="0px" y="0px"
	 viewBox="0 0 148 102" style="enable-background:new 0 0 148 102;" xml:space="preserve">
<g transform="translate(0.000000,102.000000) scale(0.100000,-0.100000)">
	<path d="M992,450c-2.6,95.4-10.9,85-9.7,143.4c0.6,29.7,3.5,69.4-5.2,112.9c-2,9.8-5.1,22.7-11.1,37.7c-9,22.3-20.3,39-29,50
		c-7-2-13-20-14-39c-0.4-8.1,2.3-18.3,5.1-31.2c1.4-6.3,2.7-11.6,3.6-15.1c0.9-6.2,2.2-15.7,2.9-27.3c0.7-12.2,0.5-21.3,0.4-24.5
		c-0.6-29.2-0.5-105.5,0.8-147.9c2.1-69.3,7.4-57.9,5.5-93.7c-3.6-66.6-21.2-88.3-21.3-113.4c0-2.5,0.2-11.2-5.3-15.3
		c-2.8-2.1-6.8-2.6-11.7-1.7c-10,1-17,25-23,25c-5,0-17,33-25,36c-8,4-14,28-25,34c-11,6-20,39-32,52c-13,13-30,145-30,258
		c-1,113-3,210-5,216c-6,17-33,13-43-6c-5-10-7-20-3-23c4-5,7-416,2-424c-1-2-3-7-4-13c-1-5-4-13-5-17c-1-5-21.2-47.1-23.3-60
		c-0.7-4.2-2.1-7.1-13.4-23.1c-10.1-14.3-15.2-21.5-18.2-25c-6.9-8-29.7-34.9-49.1-32c-18.1,2.7-34.2,31.7-34.7,70.5
		c-1.2,23.9-2.8,55.4-4.8,92.4c-7.1,131.9-7.7,115.7-8.5,147.1c-3.2,114.5,9,187-13,187c-5.7,0-10.5-0.9-14.4-3.5
		c-34.4-22.5-18.7-93.6-15.6-212.5c2.4-90.3-3.7-179.6,14.2-258.3c4.5-19.9,13.6-52.4,40.5-79.2c3.6-3.6,15.5-14.9,34.1-24.8
		c16.2-8.6,31.3-12.9,72.7-19.3c36.4-5.7,54.6-8.5,70.9-9.2c38-1.6,97.9-4.2,154.6,31.3c14.7,9.2,67.1,42,78,94.5
		c1.3,6.4,4.9,27.5,5.9,53.4C989.6,441.6,993.5,397.1,992,450z M712.6,222.8c-23.9,4.7-52.1,10.3-56.1,26
		c-4,15.7,20.1,25.6,47.5,61.4c38,49.6,36.8,89.5,53.8,89.8c13.5,0.3,16.3-24.6,42.5-63.3c39.8-58.8,81.1-72.2,75.2-90.9
		c-3.9-12.4-27.7-15.7-75.3-22.4C748.3,216.3,721,221.2,712.6,222.8z"/>
</g>
</svg>
