<?xml version="1.0" encoding="utf-8"?>
<!-- Generator: Adobe Illustrator 22.1.0, SVG Export Plug-In . SVG Version: 6.00 Build 0)  -->
<svg version="1.1" id="图层_1" xmlns="http://www.w3.org/2000/svg" xmlns:xlink="http://www.w3.org/1999/xlink" x="0px" y="0px"
	 viewBox="0 0 148 115" style="enable-background:new 0 0 148 115;" xml:space="preserve">
<g transform="translate(0.000000,115.000000) scale(0.100000,-0.100000)">
	<path d="M734,1008c-5-13-9-26-10-30c-1-5-3-9-4-10c-1-2-4-30-6-63c-5.3-87.7-16.5-99.5-19-148c-2.7-52.1,4.4-54.1,3.8-121
		c-0.4-48.9-4.5-88.6-7.8-114c1-4-4-21-12-39c-8.1-19.8-18.2-31.5-30.9-35.4c-30.8-9.3-70.1,32-73.1,35.4c-26.6,29.6-33.3,64-39,93
		c-9.7,49.8-0.6,69.7-18,106c-9.2,19.2-20.9,32.8-29,41l-9,10.4c-3.4,4-10,1.6-10-3.7V710c0-19-2-54-5-77c-3-27,10-106,16-160
		c9-74,17-103,32-118c11-11,21-31,32-40c4.4-3.6,19.2-19.2,43-35c8.4-5.5,31.4-20.6,61-30.7c11.7-4,47.7-15.3,108-10.3
		c51.3,4.3,149.6,12.4,213,88c28,33.4,39.4,68.1,45,86c17.1,54.1,14,103.8,12,137c-2.3,38.2-5.8,71.9-9,100.2
		c-2.5,22.4-1.4,29.5-5,49.8c-2.3,13-5.1,23.4-7,30c-1,8-9,16-18,18c-1.9,0.4-7.8,2.1-12.7-0.4c-11-5.5-9.1-27.7-9.4-45.8
		c-0.3-23.4-4-28.2-8-44.7c-2.9-12-3.9-20.2-5-30.8c-6.4-56.6-10.5-93.1-22-126c-10.8-31.1-23.3-66.8-50.9-73.3
		c-27.9-6.5-58.6,19.8-73.9,42.8c-17,25.5-15.5,47.4-13.8,122.6c2.5,105.4,3.7,158,0.7,200.9c-1.6,23.5-10.8,45.5-5.1,83.6
		c0.4,2.5,0,34-2,65C782,1019,751,1058,734,1008z"/>
</g>
</svg>
