<?xml version="1.0" encoding="utf-8"?>
<!-- Generator: Adobe Illustrator 22.1.0, SVG Export Plug-In . SVG Version: 6.00 Build 0)  -->
<svg version="1.1" id="图层_1" xmlns="http://www.w3.org/2000/svg" xmlns:xlink="http://www.w3.org/1999/xlink" x="0px" y="0px"
	 viewBox="0 0 149 101" style="enable-background:new 0 0 149 101;" xml:space="preserve">
<g transform="translate(0.000000,101.000000) scale(0.100000,-0.100000)">
	<path d="M979.9,558.3c-18.7,48.9-29.9,74.8-29.9,74.8c-22.2,51.3-26.3,52.5-31.8,75.7c-4.9,20.5-5.3,34.9-12.9,36.9
		c-11,2.8-26.3-23.1-29-27.8c-7-11.9-10.9-23.5-17.1-53c-3.6-17.1-5.5-28.5-9.8-53.7c-7.6-44.3-9.2-53.2-12.4-66.5
		c-6.3-25.9-13.3-54.3-21.3-54.1c-5.9,0.2-6.5,16.1-21.2,52.5c-1.9,4.7-1.7,4.1-20.4,45c0,0-8.2,17.8-19.5,42.6
		c-29.7,65.3-32.5,72.6-39.5,73.4c-14.8,1.6-29.3-28-41-52c-15.9-32.6-22.2-63.7-28-92c-1.6-7.9-3.5-18.8-7.3-40.5
		c-4.2-23.9-7.4-43.6-9.5-57.2c-16.8,14.6-27.7,28.4-34.4,38.1c-7.8,11.3-10.6,17.8-24.6,43c-10.8,19.4-20.4,35.8-23.9,41.7
		c-3.4,5.6-48.9,81.1-68.3,75c-13.8-4.4-5.8-47.2-4-132c5-231,5-225,21-225c9,0,14,6,11,14c-3,8,2,13,12,13c32,0,357,10,427,12
		c39,2,75,6,82,10C1011.7,464.9,991.7,527.2,979.9,558.3z M521.1,374c-17,7.9-12.8,40.5-16.3,103.1c-3.8,69.5-12.6,93.3-5.3,95.9
		c10.4,3.7,23.4-46.9,81-123.6c16.2-21.6,33.5-42,26.6-54.4c-3-5.4-8.8-6-49-14.9C526.7,373.1,524.9,372.2,521.1,374z M688,380
		c-24,0-28,4-28,30c0,17,12,67,27,112c24,73,28,79,40,62c8-11,23-50,34-89c12-38,23-77,25-86C791,392,750,380,688,380z M976,403
		c-1-2-30-5-64-7c-66-4-74,2-62,44c8,25,23,96,35,158c7,34,25,45,25,15c0-10,7-31,15-46C941,536,981,408,976,403z"/>
</g>
</svg>
