<?xml version="1.0" encoding="utf-8"?>
<!-- Generator: Adobe Illustrator 22.1.0, SVG Export Plug-In . SVG Version: 6.00 Build 0)  -->
<svg version="1.1" id="图层_1" xmlns="http://www.w3.org/2000/svg" xmlns:xlink="http://www.w3.org/1999/xlink" x="0px" y="0px"
	 viewBox="0 0 149 85" style="enable-background:new 0 0 149 85;" xml:space="preserve">
<g transform="translate(0.000000,85.000000) scale(0.100000,-0.100000)">
	<path d="M740,680c-11.8-17.1,16.7-47.5,29.5-86.2c13.2-39.8-0.3-100.2-27.2-220.9c0,0,0,0,0,0c2.6-9.5,7.1-25.6,17.5-33.1
		c15.4-11.1,40.2-0.1,65.2,10.2c105.3,43.4,164.2,88.4,173,62c2.3-6.9,7.7-10.3,10.9-20.3c6.5-20.2-0.4-39.8-14.4-78.1
		c-12-32.8-20.8-45.6-32.5-55.6c-4.3-3.7-32.7-9.1-43,0c-5.1,4.5-14.2,10.3-13,15.9c0.3,1.3,15.6,28.4,19,46.1c5,26-10,34-26,13
		c-12-14-12-16,0-8c10,5,12,4,7-4c-4-6-12-9-17-5c-17,10-140.2-30.5-150.9-31.6c-6.1-0.6-15.8-1.9-35.1-6.4
		c-51-12.1-92.5-37.6-116-20.5c-9,6.5-12,16.8-13.4,21.6c-6.9,23.6,7.7,45.5,10.8,50c13,18.4,22.6,12.3,32.3,30.3
		c10.7,19.9,8.1,54.8-8.7,83.7c-12.2,21-35,40.9-45.6,35.8c-9.4-4.4-3-25.2-3.6-57.6c-1.2-75.3-37.8-93.6-31.8-158.5
		c2.7-29.4,4.4-48.3,19-59.7c35-27.4,119.7,6.5,215.3,47.1c29.9,12.7,63.1,28.6,90.6,14.2c18.9-9.9,17.6-24.9,43.1-44.3
		c7.2-5.5,39.8-30.3,74.5-24.3c35.2,6,54.3,40.6,68.5,66.3c5.2,9.3,58.5,103.8,12,156c-33,37-49,38-130,8c-25-10-70-25-75-28
		c-19-12-33,6-31,39c4.6,76.3,23.7,99.2,12,152c-3,13.4-20.6,39-56,90c-2.3,3.4-7.7,10.9-15,11C747,690.1,740.9,681.3,740,680z"/>
</g>
</svg>
