<?xml version="1.0" encoding="utf-8"?>
<!-- Generator: Adobe Illustrator 22.1.0, SVG Export Plug-In . SVG Version: 6.00 Build 0)  -->
<svg version="1.1" id="图层_1" xmlns="http://www.w3.org/2000/svg" xmlns:xlink="http://www.w3.org/1999/xlink" x="0px" y="0px"
	 viewBox="0 0 800 600" style="enable-background:new 0 0 800 600;" xml:space="preserve">
<path d="M291,36.1c-9.8,11.1-8.5,12.4,20.3,28.8c16.3,9.2,32.7,17,35.3,17c15.7,0,45.8,67.3,45.8,104v21.6l-30.1-3.9
	c-36.6-3.9-48.4-13.1-48.4-36.6c0-10.5-2-22.9-3.9-28.8c-4.6-12.4-19.6-13.7-24.2-2.6c-3.9,11.8-0.7,68,4.6,76.5
	c7.8,12.4,54.9,33.3,75.9,33.3h19.6l-3.9,60.2c-2,33.3-5.2,62.8-7.2,65.4c-6.5,11.1-22.9,3.9-48.4-20.9
	c-20.3-19.6-29.4-24.8-35.3-19.6c-8.5,7.2-8.5,26.8,0,47.1c6.5,17,44.5,37.9,67.3,37.9c17,0,24.2,5.2,41.2,30.7
	c11.8,17.7,29.4,39.9,39.9,50.3c11.4,11.4,11.9,16.4,18.3,23.5c4.8,5.4,11.1,11.8,23.9,24.6c9.8,9.8,8.4,8.2,10.9,10.9
	c7.1,7.7,8.3,10.1,13,12.8c1.3,0.7,6.7,4,14.3,4c32.7,0,26.2-18.3-24.8-70.6c-37.9-39.2-50.3-56.9-54.3-76.5
	c-3.3-19-2.6-26.2,4.6-28.1c17.7-5.9,71.3-64.7,71.3-78.5c0-28.8-32.7-25.5-45.8,4.6c-10.5,25.5-37.3,51-45.8,42.5
	c-3.3-3.3-6.5-13.7-6.5-22.2c0-15,3.9-81.1,5.9-93.5c0-2.6,5.9-4.6,13.1-4.6c47.1,0,88.9-94.2,64.7-147.1
	c-14.4-32-30.1-11.8-26.8,34.7c2.6,36-5.9,50.3-34.7,56.2c-19,4.6-20.3,3.3-20.3-13.7c1.3-64.1-30.1-114.4-86.3-138
	C302.8,25,301.5,24.4,291,36.1z"/>
</svg>
