<?xml version="1.0" encoding="utf-8"?>
<!-- Generator: Adobe Illustrator 22.1.0, SVG Export Plug-In . SVG Version: 6.00 Build 0)  -->
<svg version="1.1" id="图层_1" xmlns="http://www.w3.org/2000/svg" xmlns:xlink="http://www.w3.org/1999/xlink" x="0px" y="0px"
	 viewBox="0 0 800 600" style="enable-background:new 0 0 800 600;" xml:space="preserve">
<path d="M279.3,62.3c0,6,8.4,13.2,18,18c58.8,21.6-34.8,127.3-121.3,136.9c-28.8,2.4-52.8,10.8-52.8,15.6c0,6,20.4,42,45.6,79.3
	c40.8,62.4,44.4,74.5,43.2,146.5c-1.2,85.3,9.6,103.3,48,81.7c14.4-7.2,86.5-13.2,169.3-14.4c79.3,0,150.1-4.8,158.5-9.6
	c7.2-4.8,14.4-38.4,14.4-78.1c0-75.7,13.2-118.9,50.4-171.7l24-33.6l-27.6-7.2c-15.6-2.4-102.1-7.2-192.1-8.4
	c-91.3-2.4-165.7-6-165.7-9.6c0-3.6,16.8-19.2,36-34.8c42-32.4,45.6-63.6,12-97.3C314.1,50.3,279.3,43.1,279.3,62.3z M597.5,270.1
	c-16.8,56.4-28.8,124.9-30,169.3v44.4L451,482.6c-64.8-1.2-135.7,1.2-156.1,6c-38.4,8.4-39.6,8.4-39.6-32.4c0-25.2,7.2-44.4,16.8-48
	c9.6-3.6,74.5-10.8,144.1-15.6c69.7-4.8,127.3-13.2,127.3-18c0-15.6-68.5-18-216.2-10.8c-76.9,4.8-76.9,4.8-92.5-33.6
	c-15.6-37.2-14.4-39.6,16.8-52.8c28.8-13.2,138.1-24,308.6-31.2C602.3,243.6,606,246,597.5,270.1z"/>
</svg>
