<?xml version="1.0" encoding="utf-8"?>
<!-- Generator: Adobe Illustrator 22.1.0, SVG Export Plug-In . SVG Version: 6.00 Build 0)  -->
<svg version="1.1" id="图层_1" xmlns="http://www.w3.org/2000/svg" xmlns:xlink="http://www.w3.org/1999/xlink" x="0px" y="0px"
	 viewBox="0 0 800 600" style="enable-background:new 0 0 800 600;" xml:space="preserve">
<path d="M251.4,51.2c-29.9,51.6-36.2,99.6-21.7,152.1c16.3,52.5,45.3,84.2,111.3,115.9c41.6,19.9,44.4,27.2,29.9,65.2
	c-7.2,19.9-13.6,23.5-30.8,19c-13.6-3.6-28.1,0.9-41.6,12.7l-20.8,18.1l22.6,8.1c11.8,4.5,32.6,6.3,45.3,3.6
	c19.9-3.6,23.5-0.9,29,24.4c2.7,16.3,5.4,42.5,5.4,57.9s3.6,33.5,8.1,39.8c10.9,17.2,37.1-10.9,38.9-41.6
	c2.7-54.3,4.5-70.6,5.4-81.5c0.9-5.4,13.6-10.9,28.1-10.9c35.3,0,55.2-8.1,55.2-23.5c0-9.1-12.7-12.7-45.3-12.7
	c-40.7,0-45.3-1.8-45.3-20.8c0-37.1,10.9-60.7,28.1-60.7c28.1,0,77.9-51.6,93.2-96.9c19-56.1,18.1-96-3.6-138.5
	c-32.6-63.4-54.3-60.7-36.2,4.5c9.1,33.5,10,51.6,0,92.3c-17.2,76.9-81.5,129.5-81.5,67c0-29.9-10-39.8-30.8-31.7
	c-9.1,3.6-14.5,16.3-14.5,36.2c0,17.2-4.5,30.8-10,30.8c-9.1,0-48-38-79.7-76.9c-18.1-22.6-19.9-94.1-3.6-129.5
	c12.7-26.3,12.7-31.7,1.8-38.9C269.5,23.1,267.7,24,251.4,51.2z"/>
</svg>
