<?xml version="1.0" encoding="utf-8"?>
<!-- Generator: Adobe Illustrator 22.1.0, SVG Export Plug-In . SVG Version: 6.00 Build 0)  -->
<svg version="1.1" id="图层_1" xmlns="http://www.w3.org/2000/svg" xmlns:xlink="http://www.w3.org/1999/xlink" x="0px" y="0px"
	 viewBox="0 0 800 600" style="enable-background:new 0 0 800 600;" xml:space="preserve">
<path d="M382.3,85.3c-6.5,19.5-8.3,50.1-4.6,74.2l5.6,40.8h-40.8c-40.8,0-41.7-0.9-39.9-28.7c1.9-40.8-15.8-42.7-29.7-4.6
	c-7.4,20.4-25,39.9-46.4,52.9c-42.7,26.9-51,38-33.4,48.2c14.8,8.3,91.8-6.5,110.3-20.4c4.6-4.6,23.2-10.2,39.9-13
	c28.7-5.6,29.7-5.6,29.7,28.7v34.3L287.7,319c-47.3,11.1-96.4,23.2-109.4,26c-13,2.8-30.6,12.1-38.9,20.4
	c-16.7,16.7-35.2,82.5-20.4,74.2c4.6-2.8,38-22.3,74.2-42.7c42.7-25,85.3-41.7,120.5-47.3c59.3-9.3,67.7-4.6,69.5,36.2
	c1.9,49.1,4.6,107.6,6.5,134.5l2.8,27.8l17.6-22.3c15.8-17.6,18.5-35.2,18.5-108.5c0-85.3,0.9-87.2,21.3-87.2
	c26.9,0,96.4,32.5,124.3,57.5l20.4,18.5l44.5-42.7l44.5-42.7l-38,5.6c-24.1,3.7-52.9,0-81.6-9.3c-23.2-8.3-64-14.8-89.9-14.8h-46.4
	l2.8-39.9l2.8-38.9l61.2,2.8c35.2,1.9,64.9-0.9,67.7-6.5c8.3-13.9-7.4-19.5-65.8-26c-29.7-2.8-55.6-6.5-57.5-8.3
	c-2.8-2.8-3.7-19.5-3.7-38.9c2.8-63.1-5.6-94.6-25-94.6C399,52,389.7,63.1,382.3,85.3z"/>
</svg>
