<?xml version="1.0" encoding="utf-8"?>
<!-- Generator: Adobe Illustrator 22.1.0, SVG Export Plug-In . SVG Version: 6.00 Build 0)  -->
<svg version="1.1" id="图层_1" xmlns="http://www.w3.org/2000/svg" xmlns:xlink="http://www.w3.org/1999/xlink" x="0px" y="0px"
	 viewBox="0 0 800 600" style="enable-background:new 0 0 800 600;" xml:space="preserve">
<path d="M371.2,68.7c-2.3,5.5-0.8,14,3.9,18.7c4.7,4.7,8.6,37.4,9.4,73.3l0.8,64.7l-24.9,2.3c-14.8,1.6-25.7-0.8-25.7-5.5
	c0-4.7,3.9-8.6,7.8-8.6c13.3,0,8.6-28.1-7.8-46.8c-18.7-21.8-25.7-17.2-28.8,21c-2.3,30.4-24.2,66.3-55.3,91.2
	c-9.4,7.8-16.4,15.6-14,17.9c4.7,4.7,49.1-19.5,72.5-39c13.3-11.7,19.5-12.5,32-6.2c9.4,4.7,23.4,8.6,32.7,8.6
	c14.8,0,16.4,3.9,14,35.9l-2.3,35.9l-54.6,15.6c-29.6,8.6-77.2,17.9-105.2,20.3l-50.7,5.5l21.8,14.8c28.8,19.5,75.6,18.7,128.6-2.3
	c66.3-26.5,63.9-28.8,63.9,77.2c0,51.5,3.1,93.5,7,93.5c8.6,0,24.2-67.8,24.2-107.6c0-55.3,8.6-86.5,25.7-92
	c8.6-2.3,40.5-7,70.9-10.1c42.1-3.1,56.1-7.8,57.7-17.2c3.9-20.3-37.4-33.5-73.3-23.4c-17.2,4.7-39.8,8.6-51.5,8.6
	c-20.3,0-21-1.6-18.7-30.4c3.9-41.3,8.6-46.8,44.4-52.2c31.2-5.5,39-17.9,19.5-33.5c-7-6.2-21.8-7.8-40.5-3.9l-28.8,5.5l5.5-45.2
	c4.7-43.7,3.9-46.8-20.3-71.7C383.7,54.7,377.4,52.4,371.2,68.7z"/>
</svg>
