<?xml version="1.0" encoding="utf-8"?>
<!-- Generator: Adobe Illustrator 22.1.0, SVG Export Plug-In . SVG Version: 6.00 Build 0)  -->
<svg version="1.1" id="图层_1" xmlns="http://www.w3.org/2000/svg" xmlns:xlink="http://www.w3.org/1999/xlink" x="0px" y="0px"
	 viewBox="0 0 800 600" style="enable-background:new 0 0 800 600;" xml:space="preserve">
<path d="M484.8,218.5c-5.1-9.1-7.6-13.6-8.2-18.4c-0.3-2.1-0.5-6.4-3.5-10.3c-1.8-2.3-3.7-3.6-4.5-4c-7.1-4.7-10.8-15.9-17.6-33.2
	c-5-12.6-4-8.8-7.9-19c-9.7-25-15.6-37.5-18.8-55.2c-1.3-7.5-2.9-19.2-7.5-19.8c-3.3-0.4-7.2,3.2-10.6,11.5
	c-2.3,6.8-4.5,39.9-4.5,74.6c0,64.1-2.3,70.1-31.7,75.4c-27.1,5.3-34.7-7.5-30.9-52.8c2.3-26.4,0.8-41.4-4.5-41.4
	c-4.5,0-8.3,8.3-8.3,18.1c0,9.8-2.3,27.9-4.5,40.7c-3.8,18.1-0.8,27.1,14.3,42.2c16.6,16.6,22.6,18.1,38.4,12.1
	c35.4-12.8,20.3,3-49.7,56.5c-77.6,57.3-126.6,101-126.6,111.5c0,12.8,69.3,0,130.4-24.1c69.3-26.4,70.1-25.6,63.3,50.5
	c-3,41.4,3.8,135.6,9,122.1c7.1-18.2,4.5-70.8,5.3-98c0.6-19.2,3.1-26.8,3.9-52.9c0.3-9.4,2.2-19,1-28.3c-0.4-3.1-1.4-9.8,0.8-17.5
	c1.5-5.3,3.8-8.1,4.5-8.9c2.1-2.6,3.8-3.3,8.1-6.5c3.4-2.5,3.3-2.7,9.3-7.7c5.6-4.6,8.1-6.4,13.4-10.6c14.3-11.2,13-11.4,20.1-16.4
	c7.4-5.3,9.3-5.4,21.2-12.6c8.3-5,15.6-9.8,21.7-14.2c2.1-1,5.6-3.2,8.5-7.2c1.8-2.4,2.6-4.6,2.9-5.4c1.9-5.2,1.4-10,1-11.7
	c-1.6-7.8-9.8-8-21.5-18.3C492,231.1,486.9,222.2,484.8,218.5z M395.7,307.5c-3,28.6-5.3,31.7-38.4,46
	c-18.8,7.5-41.4,17.3-49.7,21.1c-8.3,3.8-24.9,8.3-37.7,9.8c-12.1,2.3-28.6,6.8-36.2,9c-23.4,9.8-6-17.3,23.4-35.4
	c15.8-9,37.7-25.6,49-36.2c37.7-33.2,82.9-61,88.2-53.5C396.5,272.8,397.2,290.1,395.7,307.5z M421.5,82.7c2-0.2,2.8,17.9,12.3,45.3
	c5.7,16.4,13.5,30.3,18.5,39.5c5.1,9.6,9.8,17.4,13.4,23c-5.9,3.5-10.6,6.3-13.7,8.2c-4.1,2.5-10.8,6.5-19.2,11.1
	c-10,5.4-11,5.3-11.7,4.9c-4.4-2.3-1-14.3-0.2-39.7c0.2-8.1,0-11.6-0.1-13.4c-0.3-4.7-0.8-7.9-1.1-13c-0.4-6.5-0.4-11.2-0.3-17.9
	C419.7,110.8,419,82.9,421.5,82.7z M414.9,326.5c-2.3-1.2-2.9-4.4-1.2-29.5c2.5-36.5,4.7-41.7,6.4-45.1c3.1-6,5.6-8.1,22.6-25.2
	c12-12,21.5-21.8,27.6-28.1c3,9.8,6.8,17.5,10,23.2c2.4,4.3,6.4,11.2,13.3,19c6.1,6.8,12.2,11.6,16.8,14.9c0.8,4.3,0.1,7.5-0.5,9.3
	C508,270.8,420.6,329.6,414.9,326.5z"/>
</svg>
