<?xml version="1.0" encoding="utf-8"?>
<!-- Generator: Adobe Illustrator 22.1.0, SVG Export Plug-In . SVG Version: 6.00 Build 0)  -->
<svg version="1.1" id="图层_1" xmlns="http://www.w3.org/2000/svg" xmlns:xlink="http://www.w3.org/1999/xlink" x="0px" y="0px"
	 viewBox="0 0 800 600" style="enable-background:new 0 0 800 600;" xml:space="preserve">
<path d="M333.7,196c0,16.2-10.4,36.9-23.2,47.3c-10.4,7.9-16.2,9.1-39,7.9l-27-1.2l1.7,18.7c0.4,10.4,2.1,19.9,3.3,21.6
	c6.2,10.8,66-6.2,83.8-23.2l10.8-10.4l21.6,12c12,6.2,29,17,37.3,23.6c24.1,18.7,92.1,65.1,114.9,78l19.9,11.6l22-7.5
	c22.4-7.5,60.2-33.2,63.5-42.7c1.2-3.7-5.8-5-29-5c-54.8,0.8-67.2-3.3-176.7-59.3l-55.2-28.2l8.7-12c10.4-14.5,6.6-25.3-12.4-35.3
	C340.7,182.7,333.7,184,333.7,196z"/>
</svg>
