<?xml version="1.0" encoding="utf-8"?>
<!-- Generator: Adobe Illustrator 22.1.0, SVG Export Plug-In . SVG Version: 6.00 Build 0)  -->
<svg version="1.1" id="图层_1" xmlns="http://www.w3.org/2000/svg" xmlns:xlink="http://www.w3.org/1999/xlink" x="0px" y="0px"
	 viewBox="0 0 800 600" style="enable-background:new 0 0 800 600;" xml:space="preserve">
<path d="M386.4,195.5c-1.7,2.6-2.2,5.6-0.4,6.9c6.9,6.9-61.7,95.8-113.1,146.7c-17.7,17.3-29.8,31.5-26.8,31.5
	c7.8,0,40.1-23.7,68.2-49.6l25.5-23.3l29.8,14.2c16.8,7.8,46.6,26.8,66.5,41.9c83.3,63.4,83.7,63.4,133.3,46.2
	c19.9-6.9,41.4-15.1,47-18.1c9.9-5.2,9.1-6-19-12.9c-67.8-16.4-110.5-31.1-167.9-56.5c-33.2-15.1-63.9-28.1-68.6-29.8
	c-5.6-1.7-6.5-4.3-3.9-8.2c2.6-2.6,15.5-20.3,28.9-38.8c24.2-32.8,24.6-34.1,18.1-44.4C396.3,189.9,390.7,188.2,386.4,195.5z"/>
</svg>
