<?xml version="1.0" encoding="utf-8"?>
<!-- Generator: Adobe Illustrator 22.1.0, SVG Export Plug-In . SVG Version: 6.00 Build 0)  -->
<svg version="1.1" id="图层_1" xmlns="http://www.w3.org/2000/svg" xmlns:xlink="http://www.w3.org/1999/xlink" x="0px" y="0px"
	 viewBox="0 0 800 600" style="enable-background:new 0 0 800 600;" xml:space="preserve">
<g transform="translate(0.000000,102.000000) scale(0.100000,-0.100000)">
	<path d="M5217.6-3025.8c-2.5,584.7-22.3,790.1-29.1,1183c-0.6,47.6-6.2,101.5-15.5,261.7c-15.5,270.4-17.3,325.4-18.6,381.1
		c-2.5,119.4-4.3,185.6-1.2,272.8c2.5,72.4-0.6,144.8,1.9,217.2c0,4.9,1.2,26-1.2,53.8c-1.9,23.5-4.3,44.5-13,70.5
		c-13,37.1-32.2,60-35.9,65c-11.8,14.2-23.5,23.5-29.1,27.8c-9.9,8-39,29.7-82.9,36.5c-19.2,3.1-63.1,9.9-102.1-14.8
		c-16.1-10.5-25.4-22.9-31.6-30.3c-4.3-5.6-19.8-26.6-30.9-66.8c-9.3-34.6-9.9-62.5-9.9-73.6c-1.2-110.7,4.3-180.7,4.3-180.7
		c13-165.2,4.3-60.6,12.4-165.8c9.9-126.2,27.2-324.8,62.5-598.3c18.6-145.4,16.1-319.2,20.4-667c4.9-427.5,6.8-527.8,3.1-604.5
		c-5.6-117.6-8-235.1-9.9-353.3c0,0-1.9-125-61.3-256.1c-14.2-31.6-32.2-64.3-63.7-71.8c-26.6-6.2-53.8,6.8-99,43.3
		c-58.2,47-99.6,96.5-153.4,170.1c-26,35.9-29.1,41.5-124.4,179.4c-29.7,42.7-43.9,63.1-48.3,69.9c-61.3,91.6-157.1,245-243.8,440.5
		c-97.1,219-135.5,383-148.5,439.9c-1.9,8-8.7,39-16.1,79.8c-22.3,125.6-34,337.8-34,337.8c-3.1,54.4-1.9,47-10.5,238.2
		c-4.9,117.6-7.4,181.3-10.5,237c-16.7,290.2-34.6,363.2-37.7,1026.4l0,0c6.8,121.3-1.9,201.7-22.3,340.9
		c-1.2,8.7-6.2,41.5-15.5,82.3c-3.7,17.3-6.8,26.6-8.7,32.8c-8.7,29.7-14.2,47.6-28.5,66.8c-6.2,8-11.1,14.2-16.7,19.2
		c-9.9,8.7-18.6,13-21.7,14.2c-15.5,7.4-28.5,8-40.2,8.7c-12.4,0.6-21.7-0.6-32.8-1.9c-9.9-1.2-22.3-2.5-38.4-7.4
		c-2.5-0.6-16.7-4.9-31.6-11.8c-3.7-1.9-11.1-5.6-20.4-11.1c-0.6-0.6-1.2-1.2-1.9-1.2c-4.9-7.4-13-18.6-18.6-34
		c-6.2-17.9-10.5-41.5,0-108.3c3.7-24.7,6.2-33.4,12.4-63.7c0,0,7.4-37.7,17.3-105.2c16.7-108.3,6.2-246.2,16.1-436.8
		c2.5-44.5,2.5-26,9.3-126.2c6.8-99.6,14.2-232.6,21.7-433.1c9.3-245.6,9.3-428.8,9.3-490.6l0,0c1.9-87.9,1.2-201.7-8.7-333.5
		c-6.2-79.2-14.2-188.7-39.6-319.9c-27.8-143.5-68.7-250.6-146-466.5c-45.2-125-98.4-261.1-169.5-411.4
		c-43.9-92.8-16.7-26-123.1-230.2c-55.7-106.4-90.3-178.2-168.9-228.3c-63.1-40.8-102.1-34-116.3-30.3
		c-20.4,5.6-41.5,17.9-61.9,42.7c-105.2,128.1-109.5,343.4-109.5,343.4c-3.7,182.5-45.8,362.6-58.2,544.5
		c-27.2,392.9-48.9,351.4-72.4,734.4c-16.7,267.3-24.7,400.9-17.3,559.3c6.2,128.1-1.2,256.8,11.8,384.2c0,0,2.5,57.5-1.9,141.7
		c0,0-2.5,52.6-16.7,128.7c0,0-6.8,37.1-20.4,66.8c-7.4,16.1-16.7,29.7-16.7,29.7c-0.6,0.6-1.2,1.2-1.2,1.9
		c-18.6,7.4-34.6,9.3-45.2,9.9c-46.4,1.9-81.7-22.3-97.8-33.4c-12.4-8-21-16.1-25.4-20.4c-5.6-4.9-26.6-26-45.8-66.2
		c-11.8-25.4-17.3-47-21-62.5c-18.6-79.8-19.8-150.3-20.4-186.2c0,0-1.2-67.4,5.6-124.4c0-0.6,0.6-6.8,1.9-14.8
		c1.9-16.1,3.1-27.8,4.3-40.8c1.2-16.1,1.9-28.5,2.5-37.1c0,0,1.2-21.7,1.9-43.3c1.9-82.3-4.9-594.6-4.9-594.6
		c0-14.2-0.6-39.6-0.6-72.4c0-4.9,0-71.2,2.5-139.8c3.7-110.7,12.4-215.9,13.6-231.4c23.5-292.6,0.6-599.5,40.8-845.8
		c18.6-113.8,39.6-207.9,76.7-335.3c16.7-56.3,39.6-134.9,68.1-202.9c32.2-78,64.3-154.1,131.2-238.2
		c66.8-83.5,133.6-131.2,147.3-141.1c83.5-58.8,156.5-81,269.1-115.1c79.8-24.1,152.2-37.7,295.7-65.6
		c55.7-10.5,107-20.4,177.6-30.9c114.5-16.7,200.5-22.3,219-23.5c65-4.3,151.6-9.9,266-4.3c35.9,1.9,116.9,6.8,219.6,22.9
		c89.1,14.2,176.3,27.2,285.2,65.6c124.4,43.9,210.4,96.5,228.3,107.7c77.3,48.3,131.2,96.5,155.9,118.2
		c50.1,45.2,90.3,89.7,99.6,100.2c4.9,5.6,9.3,10.5,11.8,13c22.3,26,65,76.7,152.8,228.9c35.9,76.1,52.6,144.8,63.7,204.2
		C5217.6-3233.1,5217.6-3098.2,5217.6-3025.8z M3187-3772.6c-1.2,9.9-1.9,30.3,37.1,82.3c32.8,43.9,63.7,71.2,66.8,73.6
		c30.9,27.2,71.2,78,151.6,179.4c52,65,78,97.8,104.6,138.6c51.4,81,71.2,135.5,154.1,301.3c0,0,13,45.2,66.2,122.5
		c12.4,18.6,26.6,37.1,47,38.4c10.5,0.6,24.1-3.7,50.7-30.9c33.4-35.3,50.7-69.3,62.5-92.2c17.9-34.6,37.7-68.7,56.9-103.3
		c16.1-29.7,50.7-94.7,93.4-165.2c24.7-40.8,40.8-68.1,64.3-102.7c20.4-29.7,63.7-90.9,128.7-162.1c42.7-47,84.1-86,166.4-163.3
		c81-76.7,112-102.7,105.8-134.3c-5.6-31.6-43.3-48.9-89.1-69.9c-56.9-26.6-105.8-34.6-173.2-43.9c-94-13-141.1-19.8-204.2-24.7
		c-120-8.7-212.8-6.8-245.6-5.6c-47,1.2-112.6,7.4-241.3,20.4c-118.2,11.1-252.4,25.4-350.8,83.5
		C3218.6-3820.2,3191.3-3801,3187-3772.6z"/>
</g>
</svg>
