<?xml version="1.0" encoding="utf-8"?>
<!-- Generator: Adobe Illustrator 22.1.0, SVG Export Plug-In . SVG Version: 6.00 Build 0)  -->
<svg version="1.1" id="图层_1" xmlns="http://www.w3.org/2000/svg" xmlns:xlink="http://www.w3.org/1999/xlink" x="0px" y="0px"
	 viewBox="0 0 800 600" style="enable-background:new 0 0 800 600;" xml:space="preserve">
<g transform="translate(0.000000,85.000000) scale(0.100000,-0.100000)">
	<path d="M3597.6-124.2c-87-126.1,123.2-350.4,217.6-635.8c97.4-293.6-2.2-739.1-200.6-1629.4l0,0c19.2-70.1,52.4-188.8,129.1-244.2
		c113.6-81.9,296.5-0.7,480.9,75.2c776.7,320.1,1211.2,652.1,1276.1,457.3c17-50.9,56.8-76,80.4-149.7c47.9-149-3-293.6-106.2-576.1
		c-88.5-241.9-153.4-336.4-239.7-410.1c-31.7-27.3-241.2-67.1-317.2,0c-37.6,33.2-104.7,76-95.9,117.3
		c2.2,9.6,115.1,209.5,140.1,340c36.9,191.8-73.8,250.8-191.8,95.9c-88.5-103.3-88.5-118,0-59c73.8,36.9,88.5,29.5,51.6-29.5
		c-29.5-44.3-88.5-66.4-125.4-36.9c-125.4,73.8-1034.2-225-1113.1-233.1c-45-4.4-116.5-14-258.9-47.2
		c-376.2-89.3-682.3-277.3-855.6-151.2c-66.4,47.9-88.5,123.9-98.8,159.3c-50.9,174.1,56.8,335.6,79.7,368.8
		c95.9,135.7,166.7,90.7,238.3,223.5c78.9,146.8,59.7,404.2-64.2,617.4c-90,154.9-258.2,301.7-336.4,264.1
		c-69.3-32.5-22.1-185.9-26.6-424.9c-8.9-555.4-278.8-690.4-234.6-1169.1c19.9-216.9,32.5-356.3,140.1-440.4
		c258.2-202.1,882.9,47.9,1588.1,347.4c220.6,93.7,465.4,211,668.3,104.7c139.4-73,129.8-183.7,317.9-326.8
		c53.1-40.6,293.6-223.5,549.5-179.2c259.6,44.3,400.5,299.5,505.3,489c38.4,68.6,431.5,765.7,88.5,1150.7
		c-243.4,272.9-361.4,280.3-958.9,59c-184.4-73.8-516.3-184.4-553.2-206.5c-140.1-88.5-243.4,44.3-228.7,287.7
		c33.9,562.8,174.8,731.7,88.5,1121.2c-22.1,98.8-152,287.7-413.1,663.9c-17,25.1-56.8,80.4-110.6,81.1
		C3649.2-49.7,3604.2-114.6,3597.6-124.2z"/>
</g>
</svg>
