<?xml version="1.0" encoding="utf-8"?>
<!-- Generator: Adobe Illustrator 22.1.0, SVG Export Plug-In . SVG Version: 6.00 Build 0)  -->
<svg version="1.1" id="图层_1" xmlns="http://www.w3.org/2000/svg" xmlns:xlink="http://www.w3.org/1999/xlink" x="0px" y="0px"
	 viewBox="0 0 800 600" style="enable-background:new 0 0 800 600;" xml:space="preserve">
<g transform="translate(0.000000,115.000000) scale(0.100000,-0.100000)">
	<path d="M3760,288c-27-70.2-48.6-140.5-54-162.1c-5.4-27-16.2-48.6-21.6-54c-5.4-10.8-21.6-162.1-32.4-340.4
		c-28.6-473.9-89.2-537.6-102.7-799.7c-14.6-281.5,23.8-292.3,20.5-653.8c-2.2-264.2-24.3-478.7-42.1-616
		c5.4-21.6-21.6-113.5-64.8-210.7c-43.8-107-98.3-170.2-167-191.3c-166.4-50.2-378.8,172.9-395,191.3
		c-143.7,159.9-179.9,345.8-210.7,502.5c-52.4,269.1-3.2,376.6-97.3,572.7c-49.7,103.7-112.9,177.2-156.7,221.5l-48.6,56.2
		c-18.4,21.6-54,8.6-54-20v-106.4c0-102.7-10.8-291.8-27-416c-16.2-145.9,54-572.7,86.5-864.5c48.6-399.8,91.9-556.5,172.9-637.6
		c59.4-59.4,113.5-167.5,172.9-216.1c23.8-19.5,103.7-103.7,232.3-189.1c45.4-29.7,169.7-111.3,329.6-165.9
		c63.2-21.6,257.7-82.7,583.5-55.7c277.2,23.2,808.3,67,1150.9,475.5c151.3,180.5,212.9,368,243.1,464.7
		c92.4,292.3,75.6,560.9,64.8,740.2c-12.4,206.4-31.3,388.5-48.6,541.4c-13.5,121-7.6,159.4-27,269.1
		c-12.4,70.2-27.6,126.4-37.8,162.1c-5.4,43.2-48.6,86.5-97.3,97.3c-10.3,2.2-42.1,11.3-68.6-2.2c-59.4-29.7-49.2-149.7-50.8-247.5
		c-1.6-126.4-21.6-152.4-43.2-241.5c-15.7-64.8-21.1-109.1-27-166.4c-34.6-305.8-56.7-503-118.9-680.8
		c-58.4-168-125.9-360.9-275-396.1c-150.7-35.1-316.6,107-399.3,231.3c-91.9,137.8-83.7,256.1-74.6,662.4
		c13.5,569.5,20,853.7,3.8,1085.5c-8.6,127-58.4,245.8-27.6,451.7c2.2,13.5,0,183.7-10.8,351.2C4019.4,347.5,3851.9,558.2,3760,288z
		"/>
</g>
</svg>
