<?xml version="1.0" encoding="utf-8"?>
<!-- Generator: Adobe Illustrator 22.1.0, SVG Export Plug-In . SVG Version: 6.00 Build 0)  -->
<svg version="1.1" id="图层_1" xmlns="http://www.w3.org/2000/svg" xmlns:xlink="http://www.w3.org/1999/xlink" x="0px" y="0px"
	 viewBox="0 0 800 600" style="enable-background:new 0 0 800 600;" xml:space="preserve">
<g transform="translate(0.000000,101.000000) scale(0.100000,-0.100000)">
	<path d="M5665.8-1746.9c-134.7,352.2-215.4,538.8-215.4,538.8c-159.9,369.5-189.4,378.1-229,545.3
		c-35.3,147.7-38.2,251.4-92.9,265.8c-79.2,20.2-189.4-166.4-208.9-200.2c-50.4-85.7-78.5-169.3-123.2-381.7
		c-25.9-123.2-39.6-205.3-70.6-386.8c-54.7-319.1-66.3-383.2-89.3-479c-45.4-186.6-95.8-391.1-153.4-389.7
		c-42.5,1.4-46.8,116-152.7,378.1c-13.7,33.9-12.2,29.5-146.9,324.1c0,0-59.1,128.2-140.5,306.8
		c-213.9,470.3-234.1,522.9-284.5,528.7c-106.6,11.5-211-201.7-295.3-374.5c-114.5-234.8-159.9-458.8-201.7-662.7
		c-11.5-56.9-25.2-135.4-52.6-291.7c-30.3-172.1-53.3-314-68.4-412c-121,105.2-199.5,204.6-247.8,274.4
		c-56.2,81.4-76.3,128.2-177.2,309.7c-77.8,139.7-146.9,257.9-172.1,300.4c-24.5,40.3-352.2,584.1-492,540.2
		c-99.4-31.7-41.8-340-28.8-950.8c36-1663.8,36-1620.6,151.3-1620.6c64.8,0,100.8,43.2,79.2,100.8c-21.6,57.6,14.4,93.6,86.4,93.6
		c230.5,0,2571.4,72,3075.6,86.4c280.9,14.4,540.2,43.2,590.6,72C5894.8-2419.6,5750.8-1970.9,5665.8-1746.9z M2361.1-3074.4
		c-122.4,56.9-92.2,291.7-117.4,742.6c-27.4,500.6-90.8,672-38.2,690.7c74.9,26.7,168.5-337.8,583.4-890.3
		c116.7-155.6,241.3-302.5,191.6-391.8c-21.6-38.9-63.4-43.2-352.9-107.3C2401.5-3080.9,2388.5-3087.3,2361.1-3074.4z
		 M3563.3-3031.2c-172.9,0-201.7,28.8-201.7,216.1c0,122.4,86.4,482.6,194.5,806.7c172.9,525.8,201.7,569,288.1,446.6
		c57.6-79.2,165.7-360.1,244.9-641c86.4-273.7,165.7-554.6,180.1-619.4C4305.2-2944.7,4009.9-3031.2,3563.3-3031.2z M5637.7-2865.5
		c-7.2-14.4-216.1-36-461-50.4c-475.4-28.8-533,14.4-446.6,316.9c57.6,180.1,165.7,691.5,252.1,1138
		c50.4,244.9,180.1,324.1,180.1,108c0-72,50.4-223.3,108-331.3C5385.6-1907.5,5673.7-2829.5,5637.7-2865.5z"/>
</g>
</svg>
