<?xml version="1.0" encoding="utf-8"?>
<!-- Generator: Adobe Illustrator 22.1.0, SVG Export Plug-In . SVG Version: 6.00 Build 0)  -->
<svg version="1.1" id="图层_1" xmlns="http://www.w3.org/2000/svg" xmlns:xlink="http://www.w3.org/1999/xlink" x="0px" y="0px"
	 viewBox="0 0 800 600" style="enable-background:new 0 0 800 600;" xml:space="preserve">
<g transform="translate(0.000000,89.000000) scale(0.100000,-0.100000)">
	<path d="M3492-292c-28.7-29.4-22.3-94.1-2.9-142.9c20.8-51,56.7-90.5,89-72.5c60.3-49.6,150.1-137.2,218.3-270.7
		c73.2-142.9,85.5-268.6,96.2-398.6c5.7-66.1,11.5-173.1-22.3-501.3c-47.4-463.2-74.7-402.1-70.4-567.3
		c6.5-240.6,50.3-399.3-33-496.2c-25.9-30.2-65.3-43.8-125-63.9c-93.4-28.7-172.3-50.3-179.5-43.1c-7.2,0-165.2-43.1-337.5-93.4
		c-179.5-57.4-337.5-79-359.1-50.3c-14.4,28.7-50.3,186.7-79,359.1c-28.7,165.2-91.2,248.5-136.4,351.9
		c-47.4,109.9-38.8,168-100.5,208.3c-45.2,29.4-75.4,45.2-94.1,35.9c-50.3-23.7-28.7-144.3-35.2-301.6
		c-7.9-186.7-52.4-326-87.6-436.6c-62.5-194.6-102-191-176.7-408.6c-67.5-196.8-113.5-331.1-49.6-415.8
		c56.7-74.7,172.3-86.2,313.8-67.5l0,0c32.3,6.5,307.4,60.3,441.6,136.4c40.9,23,53.9,40.2,117.1,72.5
		c51.7,26.6,104.1,46,102.7,71.1c-0.7,10.8-2.2,23.7-21.5,56c-21.5,35.9,79.7,46,288.7,53.1c34.5,1.4,410,53.9,494.8,65.3
		c114.9,15.1,191.7,26.6,288,49.6c7.9,2.2,15.1,3.6,21.5,5.7c66.1,17.2,106.3,30.9,203.9,55.3c50.3,12.2,111.3,25.9,201.8,42.4
		c323.2,59.6,233.4,15.8,496.9,66.8c183.1,35.9,321,72.5,373.4,12.9c19.4-22.3,15.1-62.5,7.2-127.8
		c-15.1-141.5-6.5-230.5,41.7-284.4c67.5-76.1,191.7-76.1,252.8-74.7c29.4,0.7,203.9,7.2,302.3,122.1
		c112.7,132.1-1.4,259.2,25.1,627.6c22.3,304.5,115.6,417.9,28,542.9c-40.9,58.9-56.7,26.6-232.7,160.9
		c-165.9,127.1-248.5,190.3-280.8,226.9c-2.2,2.2-92.6,104.1-165.2,100.5c-4.3,0-7.2-0.7-10.1-2.2c-53.9-30.9,18-205.4,68.2-241.3
		c43.1-28.7,114.9-373.4,100.5-509.9c-12.2-114.2-21.5-171.6-59.6-208.3c-72.5-68.9-160.9-21.5-446-13.6
		c-247.8,7.2-452.4-12.2-452.4-12.2c-168-15.8-196.8-32.3-235.5-5.7c-60.3,40.9-82.6,145.1,8.6,642c51,278.6,20.8,1093,50.3,1199.3
		c30.2,106.3-48.8,201.8-402.1,402.1C3788.6-355.2,3558.8-224.5,3492-292z"/>
</g>
</svg>
