<?xml version="1.0" encoding="utf-8"?>
<!-- Generator: Adobe Illustrator 22.1.0, SVG Export Plug-In . SVG Version: 6.00 Build 0)  -->
<svg version="1.1" id="图层_1" xmlns="http://www.w3.org/2000/svg" xmlns:xlink="http://www.w3.org/1999/xlink" x="0px" y="0px"
	 viewBox="0 0 800 600" style="enable-background:new 0 0 800 600;" xml:space="preserve">
<g transform="translate(0.000000,92.000000) scale(0.100000,-0.100000)">
	<path d="M3687.6-563c-167.8-40.3-362.4-476.4-281.8-617.4c146.3-256.3,40.3-434.8,87.2-744.8c31.5-210.7,56.4-518.7,8.1-907.9
		c-78.5-26.8-189.9-61.7-326.8-91.3c-187.2-40.9-312-47.6-496.6-59.1c-268.4-15.4-328.8,3.4-360.3,46.3
		c-30.9,42.3-26.2,94.6-19.5,173.1c8.7,98,32.2,136.2,80.5,281.8c84.6,254.3,80.5,339.5,65.1,384.5c-10.7,29.5-18.8,59.7-29.5,88.6
		c-18.1,50.3-24.8,61.7-22.1,83.9c3.4,27.5,18.8,47,8.7,59.1c-5.4,6-14.1,7.4-22.1,8.1c-59.7,1.3-124.8-47-137.6-57
		c-32.9-25.5-57-44.3-69.1-77.8c-4.7-12.7-43.6-100.7-48.3-106.7c-5.4-7.4-17.4-21.5-32.2-42.9c-71.8-102.7-131.5-487.8-142.3-567.7
		c-12.1-89.2-24.2-182.5-47-286.5c-43.6-198.6-106.7-353.6-155-456.3c-35.6-51-44.3-111.4-18.1-150.3c32.2-48.3,104.7-42.9,153-39.6
		c19.5,1.3,87.2,7.4,149.6,55.7c61.7,47.6,61.1,91.9,100,136.9c63.1,73.1,167.1,73.1,290.6,77.8c0,0,206,7.4,560.3,45
		c264.4,27.5,219.4,61.7,431.5,77.2c141.6,10.7,304-5.4,622-36.9c97.3-10.1,205.3-42.9,355.6-40.3c355.6,6.7,496.6-13.4,617.4-87.2
		c53.7-33.6,228.2-33.6,456.3,6.7c33.6,0,308.7,234.9,295.3,704.6c-13.4,342.2-40.3,476.4-127.5,536.8
		c-67.1,47-127.5,228.2-208,335.5c-134.2,167.8-167.8,174.5-322.1,107.4c-92.6-41.6-147-90.6-161.7-149
		c-24.8-100,73.1-195.3,128.2-273.8c87.2-124.8,152.3-343.6,40.3-751.6c-183.9,47-333.5,61.7-435.5,65.8
		c-101.3,4.7-139.6-2-267.1,4.7c-214.7,11.4-322.1,16.8-368.4,48.3c-67.8,45.6-113.4,141.6-62.4,952.9
		c18.8,295.3,37.6,480.5,43.6,542.2c23.5,225.5,48.3,414,68.4,550.2c-4,28.9-20.1,130.2-102.7,185.2
		C3866.8-469,3711.1-557.6,3687.6-563z"/>
</g>
</svg>
