<?xml version="1.0" encoding="utf-8"?>
<!-- Generator: Adobe Illustrator 22.1.0, SVG Export Plug-In . SVG Version: 6.00 Build 0)  -->
<svg version="1.1" id="图层_1" xmlns="http://www.w3.org/2000/svg" xmlns:xlink="http://www.w3.org/1999/xlink" x="0px" y="0px"
	 viewBox="0 0 800 600" style="enable-background:new 0 0 800 600;" xml:space="preserve">
<path d="M460.6,36.8c-14,5.7-32.4,16.5-40.7,24.8C405.3,75,403.4,82,402.7,125.9c-0.6,26.7-1.9,52.2-2.5,56
	c-0.6,8.9-39.4,17.2-52.8,12.1c-14-5.7-24.2-31.8-24.2-63.6c0-29.9-5.1-37.5-21.6-31.2c-8.3,3.2-9.5,10.8-6.4,40.1
	c5.1,55.3,7.6,61.7,24.8,69.3c8.9,4.5,31.2,7.6,48.3,7.6h32.4l-3.8,57.9c-1.9,31.2-5.1,59.8-7,63c-5.7,8.9-33.7,12.7-50.2,6.4
	c-14-5.1-15.9-10.2-17.8-42.6c-1.9-31.8-3.8-36.9-14.6-36.9c-11.4,0-12.7,5.1-14.6,42.6c-1.9,42.6-1.9,43.2,19.1,56
	c11.4,7,30.5,12.7,42.6,12.7c20.4,0,21,0.6,17.2,20.4c-1.9,11.4-6.4,21.6-8.9,24.2c-3.2,1.9-7,7.6-8.9,12.7
	c-8.3,20.4-61.1,80.1-78.9,89c-21,10.2-40.1,31.2-40.7,42.6c0,15.3,26.7,8.3,50.9-12.7c13.4-10.8,35.6-29.3,49.6-40.7
	c16.5-14,35-39.4,54.7-77.6c26.1-50.2,31.8-57.9,46.4-57.9c8.9,0,31.8-7,49.6-15.9c42-19.7,48.3-35,42-97.3c0-3.8-7-7.6-15.3-7.6
	c-13.4,0-15.3,2.5-15.3,29.3c0,33.7-15.3,50.9-50.9,54.7c-19.7,2.5-21,1.3-21-17.2c0-10.2,1.9-38.2,4.5-62.3
	c3.8-42.6,3.8-42.6,23.5-42.6c49.6,0,67.4-7,77-30.5c13.4-31.2,12.7-75.7-1.3-82.7c-19.7-10.2-26.1-2.5-23.5,26.1
	c3.8,36.3-6.4,48.3-42,50.2l-28.6,1.9l-0.6-40.7c-0.6-47.7,10.8-65.5,51.5-78.9c17.8-6.4,25.4-12.7,25.4-21
	C510.9,24.8,492.4,23.5,460.6,36.8z"/>
</svg>
