<?xml version="1.0" encoding="utf-8"?>
<!-- Generator: Adobe Illustrator 22.1.0, SVG Export Plug-In . SVG Version: 6.00 Build 0)  -->
<svg version="1.1" id="图层_1" xmlns="http://www.w3.org/2000/svg" xmlns:xlink="http://www.w3.org/1999/xlink" x="0px" y="0px"
	 viewBox="0 0 800 600" style="enable-background:new 0 0 800 600;" xml:space="preserve">
<path d="M436.7,32.4c-0.7,3.5-0.7,8.3,0,11.1c2.8,16.6-94.7,74-124.5,74c-13.1,0-20.1,3.5-20.1,10.4c0,13.1,22.1,13.1,64.3,0.7
	l32.5-9.7l13.8,31.8c7.6,17.3,13.1,35.3,11.1,40.1c-3.5,9.7-55.3,19.4-104.4,19.4c-25.6,0.7-34.6,3.5-34.6,11.1
	c0,23.5,58.8,36,123.8,26.3c9.7-1.4,14.5,3.5,18.7,17.3c7.6,29,2.8,36-33.9,44.3c-18,4.1-49.8,12.4-70.5,18.7
	c-60.9,18-98.2,24.2-114.1,18c-17.3-6.2-32.5,0-25.6,11.1c21.4,31.1,66.4,38,117.6,17.3c40.1-15.9,103-35.3,116.2-35.3
	c8.3,0,13.1,20.1,11.1,42.2c-0.7,2.1-1.4,19.4-2.1,38c-0.7,18.7-4.1,47-7.6,62.9l-6.9,29l-20.7-10.4c-11.1-5.5-28.4-9.7-38.7-8.3
	l-18.7,2.1l22.1,12.4c12.4,6.2,27,22.1,33.2,35.3c12.4,25.6,26.3,34.6,44.3,28.4c26.3-8.3,34.6-42.9,38-157.7
	c1.4-37.3,4.1-69.1,6.2-71.2c6.9-6.9,104.4-17.3,126.5-13.1c27,4.8,42.2-9.7,31.1-30.4c-11.1-20.1-60.9-33.2-83-22.1
	c-6.2,3.5-24.2,7.6-40.1,10.4l-29.7,4.1v-33.9c0-36,5.5-42.2,38.7-42.2c9.7,0,18.7-4.8,21.4-11.1c6.2-17.3-17.3-31.1-42.9-26.3
	c-18.7,3.5-23.5,0.7-44.9-29.7c-31.1-42.9-31.1-43.6-14.5-43.6c7.6,0,15.2-2.8,18-6.2c2.1-3.5,13.1-8.3,24.2-11.1
	c27.7-6.2,28.4-30.4,0.7-47C451.2,26.9,438.1,24.1,436.7,32.4z"/>
</svg>
