<?xml version="1.0" encoding="utf-8"?>
<!-- Generator: Adobe Illustrator 22.1.0, SVG Export Plug-In . SVG Version: 6.00 Build 0)  -->
<svg version="1.1" id="图层_1" xmlns="http://www.w3.org/2000/svg" xmlns:xlink="http://www.w3.org/1999/xlink" x="0px" y="0px"
	 viewBox="0 0 800 600" style="enable-background:new 0 0 800 600;" xml:space="preserve">
<path d="M469.2,46.5c3.1,13.3-1.6,23.5-13.3,33.7c-9.4,7.8-24.3,20.4-33,27.5c-9.4,7.8-29.8,19.6-46.3,27.5
	c-32.2,14.1-38.4,23.5-18.8,30.6c6.3,3.1,11.8,8.6,11.8,14.1c0,4.7,5.5,18.8,11.8,31.4c12.6,22.8,5.5,43.2-14.9,44.7
	c-18.8,0.8-80,52.6-91.8,78.5c0,0-24.8,38.4-25.7,69.4c0,0.1,0,1.7-0.2,3.8c-0.1,1.9-0.2,2.3-0.3,3.8c-0.2,2.5-0.1,4.5-0.1,5.8
	c0.1,2.6,0.3,4.6,0.4,5.2c0.1,0.5,0.3,2.7,0.9,5.5c0.5,2.4,0.8,3.6,1.3,5.2c0.6,1.7,4.1,10.6,4.1,10.6c0.1,1.7,18.4,70.7,98.7,113.4
	c31.4,16.7,46.3,16.3,54.9,11.8c26.7-14.1,39.2-40.8,39.2-83.2c0-54.1,5.5-65.9,30.6-65.9l20.4,0.8l-21.2,18
	c-11.8,10.2-19.6,20.4-17.3,22.8c4.7,4.7,66.7-16.5,79.2-27.5c26.7-22,0-52.6-46.3-53.4c-33,0-36.1-3.1-41.6-42.4
	c-3.9-24.3-2.4-29,14.1-36.9c22.8-10.2,39.2-38.4,35.3-58.8c-1.6-11.8-10.2-15.7-36.9-17.3c-26.7-2.4-39.2-7.8-56.5-27.5
	c-12.6-13.3-22.8-26.7-22.8-29c0-3.1,23.5-17.3,52.6-32.2c61.2-32.2,85.5-58.8,77.7-88.7c-3.9-15.7-10.2-20.4-27.5-20.4
	C469.2,27.7,466,30,469.2,46.5z M408.8,296.8c0,21.2-7.1,31.4-35.3,54.9c-19.6,16.5-35.3,36.1-35.3,44.7c0,14.9,34.5,31.4,65.1,31.4
	c13.3,0,14.9,3.9,10.2,29c-2.4,16.5-4.7,35.3-4.7,41.6c0,6.3-3.1,16.5-7.1,22c-15.7,25.1-98.1-42.4-119.3-98.1
	c-19.6-51.8,12.6-108.3,82.4-143.6C401.7,260.7,408.8,263.9,408.8,296.8z"/>
</svg>
