<?xml version="1.0" encoding="utf-8"?>
<!-- Generator: Adobe Illustrator 22.1.0, SVG Export Plug-In . SVG Version: 6.00 Build 0)  -->
<svg version="1.1" id="图层_1" xmlns="http://www.w3.org/2000/svg" xmlns:xlink="http://www.w3.org/1999/xlink" x="0px" y="0px"
	 viewBox="0 0 800 600" style="enable-background:new 0 0 800 600;" xml:space="preserve">
<path d="M407.1,163c-2.3,2.9-1.2,7.6,2.3,9.9c11.1,7,18.7,33.8,11.1,40.2c-13.4,10.5-51.9,19.8-68.8,16.3
	c-17.5-3.5-22.2,2.3-9.3,12.2c13.4,11.1,40.8,12.2,56,3.5c14.6-8.2,14.6-8.2,3.5,1.2c-6.4,5.2-22.2,15.2-35,21
	c-53.6,26.2-73.5,38.5-95.6,59.5c-28.6,26.2-29.7,35-7,44.9c18.7,7.6,22.2,7,107.3-24.5c25.1-8.7,48.4-16.3,51.3-16.3
	c7.6,0,6.4,85.7-1.2,99.7c-3.5,6.4-11.1,16.9-16.9,22.7c-15.7,15.7-82.8,58.3-92.1,58.3c-4.1,0-6.4,2.3-4.7,4.7
	c5.8,9.9,53.1,5.8,73.5-6.4c49.6-30.3,60.1-47.8,67.1-114.9c7-67.1,9.3-71.7,37.9-78.7c30.3-7.6,37.9-22.7,14.6-28.6
	c-9.9-2.3-18.1-0.6-23.9,5.2c-15.2,15.2-19.8,9.9-19.8-22.7c0-28.6,1.2-31.5,15.2-35c19.8-5.2,16.3-23.3-4.7-25.7
	c-11.7-1.2-19.8-8.2-28.6-24.5C425.2,160.7,413.5,152.5,407.1,163z M429.2,296.5c-1.7,12.8-8.7,17.5-55.4,33.8
	c-55.4,19.8-103.2,29.2-103.2,19.8c0-9.9,48.4-42,102-67.6c50.7-24.5,52.5-25.1,55.4-13.4C429.8,275.6,430.4,287.8,429.2,296.5z"/>
<path d="M448.5,128.2c-16.8,9.3-30.6,14.6-34,15.9c-21,7.9-31.6,11.9-42.4,15.5c-12.2,4.1-28.3,9.1-47.4,14.3
	c22.1-1.4,39.7-5.1,52.2-8.4c8.3-2.2,22.3-6.9,50.3-16.3c0,0,0,0,0,0c9.4-3.1,18.9-6.7,19.1-6.8l0,0c5.1-2,8.8-3.5,12.1-4.9
	c0.9-0.4,4.3-1.8,8.8-3.9c2.5-1.2,1.3-0.6,12.7-6.5c2.6-1.3,7.5-3.8,8.8-7.9c0-0.1,0.1-0.3,0.1-0.5c0.4-1.7,0.1-4.3-4.1-9.4
	c-7.9-9.6-20.3-13.5-20.3-13.5c2.2,3,5.1,7.8,4.4,13.2C468.1,115.7,462.4,120.5,448.5,128.2z"/>
</svg>
