<?xml version="1.0" encoding="utf-8"?>
<!-- Generator: Adobe Illustrator 22.1.0, SVG Export Plug-In . SVG Version: 6.00 Build 0)  -->
<svg version="1.1" id="图层_1" xmlns="http://www.w3.org/2000/svg" xmlns:xlink="http://www.w3.org/1999/xlink" x="0px" y="0px"
	 viewBox="0 0 800 600" style="enable-background:new 0 0 800 600;" xml:space="preserve">
<g>
	<path d="M521.7,43.2c-1.5,11.5-8.4,18.4-19.1,19.9c-9.9,1.5-17.6,5.4-17.6,8.4c0,12.2-44.4,25.3-101.8,29.1
		c-32.1,2.3-65,9.2-71.9,14.5c-13,8.4-13,9.9,0.8,25.3c23,25.3,88,22.2,140-6.9c22.2-13,45.2-23,51.3-23c16.8,0,51.3-45.9,49-64.3
		C549.2,23.3,524.7,21,521.7,43.2z"/>
	<path d="M473.5,133.5c-7.7,8.4-15.3,27.5-16.8,43.6c-1.5,15.3-4.6,29.8-6.1,31.4c-6.9,6.9-149.2,9.9-162.2,3.1
		c-19.9-9.9-65,3.1-62,19.1c3.8,20.7,82.6,35.2,160.7,29.1l66.6-4.6l5.4,19.9c2.3,10.7,3.1,21.4,1.5,23c-3.8,3.8-62,9.2-186.7,17.6
		c-79.6,5.4-102.5,14.5-102.5,40.6c0,22.2,9.9,23,71.2,7.7c31.4-8.4,82.6-16.8,113.3-19.9c31.4-2.3,68.1-6.1,81.9-8.4
		c23.7-3.8,24.5-3.1,24.5,26c0,37.5-13,77.3-32.1,98.7c-24.5,26.8-172.9,61.2-208.9,48.2c-8.4-3.1-24.5-7.7-36-10.7
		c-19.1-4.6-21.4-3.1-21.4,14.5c0,52.8,42.9,71.2,120.1,53.6c26-6.1,54.3-14.5,61.2-18.4c7.7-3.8,29.8-14.5,49.7-23.7
		c70.4-32.1,105.6-79.6,105.6-143.1c0-19.9,3.1-40.6,6.1-44.4c3.1-4.6,31.4-8.4,62.8-9.9c56.6-2.3,71.2-9.2,66.6-32.1
		c-2.3-12.2-7.7-12.2-87.2-3.1l-48.2,5.4v-27.5c0-27.5,9.2-36,38.3-36c16.8,0,35.2-26.8,23-34.4c-3.8-2.3-19.1-2.3-33.7,0l-26,5.4
		l3.8-33.7C510.2,127.3,494.9,109.7,473.5,133.5z"/>
</g>
</svg>
