<?xml version="1.0" encoding="utf-8"?>
<!-- Generator: Adobe Illustrator 22.1.0, SVG Export Plug-In . SVG Version: 6.00 Build 0)  -->
<svg version="1.1" id="图层_1" xmlns="http://www.w3.org/2000/svg" xmlns:xlink="http://www.w3.org/1999/xlink" x="0px" y="0px"
	 viewBox="0 0 800 600" style="enable-background:new 0 0 800 600;" xml:space="preserve">
<g>
	<path d="M336.5,76.7c-18.3,2.6-31.8,15.1-24.5,22.4c2.6,2.6,40.2,5.7,82.9,6.8c43.3,1.6,84,3.1,91.3,4.2
		c19.3,3.1,17.7-16.2-2.6-26.6C467.9,76.1,373,71.5,336.5,76.7z"/>
	<path d="M459.1,169.5c-1,1-14.6,2.6-30.2,4.2c-44.8,4.7-131.4,28.7-142.4,39.6c-20.9,20.9-1,26.6,48,14.1
		c16.2-4.2,46.9-10.4,68.3-13.6c95.4-14.6,138.7-29.7,110.5-38.6C502.3,171.6,461.1,167.4,459.1,169.5z"/>
	<path d="M425.7,236.7c-2.5,1.4-7.5,25.4,32.3,87.6c19.4,30.3,25.4,52,25.9,69.6c0.4,13.8-3.1,27.2-4.5,33.2
		c-4,17.1-7.2,30.2-17.7,42.4c-12.4,14.3-27.9,19.2-33.6,20.9c-6.5,2-37.5,11.3-62.9-7.6c-30.4-22.6-25.1-65.1-20.1-78.1
		c1.4-3.6,4.2-10.9,11.4-14.9c5-2.8,10.1-2.8,11.9-2.7c7.8,0.1,13.3,3.7,15,4.7c13.4,8.8,13.2,25.3,17.6,25.1c3.8-0.2,7-12.7,7-21.1
		c0-15.6-2.1-25.9-7.6-33.4c-6.5-8.8-15.4-12-18.4-13c-17.2-5.8-32.8,2.5-37.1,4.8c-20.8,11-27.9,32.7-31.7,44.2
		c-2.3,7-15.6,49.7,9.9,88.5c11.2,17.1,25.3,26.3,32.3,30.3c36.9,20.8,75.1,9,85.8,5.7c9.6-3,27.9-8.9,43.6-25.6
		c9.8-10.4,14.6-20.6,17.4-26.6c9.5-20.6,10.1-39.3,10.7-55.6c0.4-11.9,0.3-20.2-1.2-28.6c-5-26.3-16.6-44.9-23.3-54.9
		C443.8,265.1,429,234.9,425.7,236.7z"/>
</g>
</svg>
