<?xml version="1.0" encoding="utf-8"?>
<!-- Generator: Adobe Illustrator 22.1.0, SVG Export Plug-In . SVG Version: 6.00 Build 0)  -->
<svg version="1.1" id="图层_1" xmlns="http://www.w3.org/2000/svg" xmlns:xlink="http://www.w3.org/1999/xlink" x="0px" y="0px"
	 viewBox="0 0 800 600" style="enable-background:new 0 0 800 600;" xml:space="preserve">
<path d="M348.4,82.6c-10.3,1.9-26.4,7.7-34.8,12.9c-15.5,7.7-15.5,8.4-3.2,17.4c7.1,5.2,18.7,7.1,28.4,5.2c9-2.6,49-5.2,89.6-6.4
	c40-1.9,74.8-4.5,76.7-6.4c2.6-1.9,0.6-9-2.6-14.8c-5.8-9-18.7-11-70.9-11.6C396.8,78.1,359.4,80.1,348.4,82.6z"/>
<path d="M414.8,241.2c2.6-11.2,3.4-16.8,3.7-19.3c1-8.3,0.2-9.9,3.5-13.6c7.1-8,22.8-9.1,60.5-12.8c36.1-3.9,43.8-6.4,41.9-14.8
	c-2.6-13.5-29-14.2-124.4-3.2c-38.7,4.5-82.5,9-96.7,9.7c-18,1.3-26.4,5.2-27.7,12.9c-3.2,18,19.3,25.1,62.5,19.3
	c30.9-4.5,39.3-3.9,42.5,3.9c7.1,18.7,2.6,32.2-16.8,52.2c-11,11.6-23.8,30.9-29,42.5c-16.8,41.3-7.7,166.9,14.2,190.8
	c15.5,16.8,81.2,16.8,112.2,0.6c30.9-16.8,47.7-65.7,41.9-118.6c-5.8-46.4-13.5-56.7-47.1-61.2c-39.3-5.2-59.3,9.7-59.3,43.8
	c0,21.9,11,50,25.8,50.9c12.7,0.8,27.9-18.3,32.5-35.5c2.7-10.2,2-21.1,6.7-22.4c3.3-0.9,7.6,3.2,8.6,5c3.2,5.8,6.4,50.9,4.5,77.3
	c-2.3,30.9-45.7,42.5-72.8,40c-5.9-0.6-20.8-2-32.2-13.1c-5.7-5.6-9.8-13-14-55.1c-2.4-23.6-4-51.2,0.5-80c1-6.6,2.6-14.5,7.6-23.2
	c6.4-11.1,11.8-12.1,22-22.5C385.9,294.7,407.4,272.7,414.8,241.2z M424,402.8c-4-0.2-6.6-8.3-8.4-13.9c-1.2-3.6-2.1-6.6-1.9-10.8
	c0.2-4.2,1.4-7.1,2.8-10.7c1.6-4,2.5-6,4.1-6.4c2.7-0.6,5.8,3.8,7.5,6.4c1.6,2.3,5.1,7.7,5.5,15.5c0.1,2.3,0.3,7.9-3,13.4
	C429.2,398.9,426.8,402.9,424,402.8z"/>
</svg>
