<?xml version="1.0" encoding="utf-8"?>
<!-- Generator: Adobe Illustrator 22.1.0, SVG Export Plug-In . SVG Version: 6.00 Build 0)  -->
<svg version="1.1" id="图层_1" xmlns="http://www.w3.org/2000/svg" xmlns:xlink="http://www.w3.org/1999/xlink" x="0px" y="0px"
	 viewBox="0 0 800 600" style="enable-background:new 0 0 800 600;" xml:space="preserve">
<path d="M335.4,83.3c-51.1,3.9-57.8,6.1-51.1,17.2c3.3,4.4,17.2,5.6,50.5,2.8c42.2-2.8,46.7-2.2,52.2,7.2c2.8,6.1,5.6,16.7,5.6,23.9
	c0,11.7-3.9,13.9-37.2,20c-58.9,10.6-73.9,34.4-82.2,132.2c-2.2,25.5-1.7,41.1,2.2,43.3c8.9,5.6,15.6-12.2,21.7-61.1
	c3.3-25,9.4-52.2,13.3-60c8.3-19.4,31.1-31.1,59.4-31.1H392l1.7,65c1.1,53.9,3.3,65.5,10,65.5c6.7,0,8.9-11.7,10-64.4
	c1.7-72.2,1.1-71.6,44.4-71.6c38.3,0,41.7,6.1,53.3,94.4c6.7,47.2,11.1,55,22.2,37.8c7.2-12.2-3.3-102.2-15.6-125.5
	c-11.7-22.2-45-35.5-78.3-30.5l-25.5,3.3l1.7-27.2l1.7-27.2l43.9,1.7c42.2,1.1,62.8-5,55.5-16.1C513.6,77.2,408.7,77.2,335.4,83.3z"
	/>
<path d="M442.6,364.3c-28.9,3.9-72.2,7.2-95.5,7.2c-31.7,0.6-45,2.8-51.6,9.4c-15,15-2.2,18.9,46.7,14.4c25-2.8,46.7-2.2,48.3,0
	c1.7,2.8-4.4,8.9-13.3,13.9c-35,20-47.2,61.1-27.2,91.1c10.6,16.1,16.1,18.9,37.2,20.5c53.3,3.9,94.4-20,94.4-55
	c0-33.3-45-52.2-63.3-26.1c-11.1,15.6-6.7,21.7,12.8,17.8c13.3-2.8,16.7-1.1,20,9.4c5.6,17.8-9.4,27.2-43.3,27.2
	c-62.2,0-64.4-22.8-7.2-68.9c11.1-8.9,20-21.1,20-26.7c0-8.3,5-10,35-11.1c18.9-0.6,41.1-1.1,50-1.7c18.9-0.6,31.1-11.1,22.2-20
	C519.2,357.7,501.4,357.1,442.6,364.3z"/>
<path d="M359.6,231.5c13.4-0.8,17.2,1.4,19.9-1.6c2.8-3.1,2.1-9.4-0.7-12.9c-2.9-3.5-7.7-3.7-17-4.1c-2.7-0.1-3.1,0-10.7,0.2
	c-14.1,0.4-15.8,0.1-19.7,1.3c-4.6,1.3-10,3-11.7,7.7c-1.2,3.1-0.8,7.4,1.7,9.9c2.1,2.2,5,2.3,9.8,2.4c5.1,0.1,8.6-0.5,12.4-1.2
	C343.5,233.3,351.6,232,359.6,231.5z"/>
<path d="M359.6,282.1c13.4-0.8,17.2,1.4,19.9-1.6c2.8-3.1,2.1-9.4-0.7-12.9c-2.9-3.5-7.7-3.7-17-4.1c-2.7-0.1-3.1,0-10.7,0.2
	c-14.1,0.4-15.8,0.1-19.7,1.3c-4.6,1.3-10,3-11.7,7.7c-1.2,3.1-0.8,7.4,1.7,9.9c2.1,2.2,5,2.3,9.8,2.4c5.1,0.1,8.6-0.5,12.4-1.2
	C343.5,283.9,351.6,282.6,359.6,282.1z"/>
<path d="M449.6,228.6c-12.5,0.3-15.8,2.9-18.5,0.1c-2.8-2.9-2.7-9.2-0.4-12.9c2.4-3.8,6.8-4.4,15.4-5.6c2.4-0.3,2.8-0.3,9.9-0.7
	c13-0.8,14.6-1.2,18.3-0.4c4.4,0.9,9.5,2.1,11.5,6.6c1.3,3,1.3,7.3-0.8,10c-1.8,2.3-4.5,2.7-8.9,3.3c-4.7,0.6-8,0.2-11.6-0.1
	C464.5,229,457,228.4,449.6,228.6z"/>
<path d="M453.6,279c-12.5,0.3-15.8,2.9-18.5,0.1c-2.8-2.9-2.7-9.2-0.4-12.9c2.4-3.8,6.8-4.4,15.4-5.6c2.4-0.3,2.8-0.3,9.9-0.7
	c13-0.8,14.6-1.2,18.3-0.4c4.4,0.9,9.5,2.1,11.5,6.6c1.3,3,1.3,7.3-0.8,10c-1.8,2.3-4.5,2.7-8.9,3.3c-4.7,0.6-8,0.2-11.6-0.1
	C468.6,279.4,461,278.8,453.6,279z"/>
<path d="M462.7,317.5c-35.4,0.5-61.8,2.3-76.1,3.1c-31,1.7-36.2,0.4-48.7,4.7c-18.7,6.3-36.1,19.7-33.1,24.8c2.3,4,15.9,1,51.3-2.2
	c33.1-2.9,63.2-4,81.3-4.6c44.8-1.6,66.6-0.1,68.3-6.5c1.4-5.2-11.4-12.4-13.1-13.3C481.3,317.4,469.5,317.4,462.7,317.5z"/>
</svg>
