<?xml version="1.0" encoding="utf-8"?>
<!-- Generator: Adobe Illustrator 22.1.0, SVG Export Plug-In . SVG Version: 6.00 Build 0)  -->
<svg version="1.1" id="图层_1" xmlns="http://www.w3.org/2000/svg" xmlns:xlink="http://www.w3.org/1999/xlink" x="0px" y="0px"
	 viewBox="0 0 800 600" style="enable-background:new 0 0 800 600;" xml:space="preserve">
<path d="M408.2,100.7c-3,1.2-26.6,4.7-52,7.7c-47.8,5.9-75,17.7-75,34.2c0,9.4,20.7,8.9,75-1.8c15.4-3,18.9-1.2,22.4,9.4
	c2.4,7.1,3,13.6,1.8,15.4c-1.8,1.2-23,4.7-47.2,8.3c-69.1,8.3-70.8,10-109.2,84.4c-11.2,20.7-6.5,33.7,11.8,33.7
	c10.6,0,16.5-4.7,21.3-17.7c3.5-10,9.4-25.4,13-35.4c8.3-21.8,24.2-32.5,65.5-41.3c48.4-11.2,52-8.3,52,40.7
	c0,46.1,3.5,59.6,15.4,59.6c10,0,13.6-15.4,15.4-67.9l1.8-41.3l35.4-1.8c19.5-1.2,43.7-0.6,53.7,1.8c17.1,3,19.5,5.9,28.9,41.3
	c10.6,37.8,22.4,52,28.9,34.2c8.3-21.3-13-86.2-30.1-93.3c-5.9-1.8-33.7-5.3-62-7.1c-49.6-3.5-52-4.1-52-17.1s2.4-13.6,46.1-15.4
	c35.4-1.2,45.5-3.5,45.5-10.6c0-6.5-10-10-38.4-13c-21.3-2.4-43.7-5.3-50.2-7.1C419.4,99.5,411.8,99.5,408.2,100.7z"/>
<path d="M565.9,364c-4.7,4.7-18.3,4.7-55.5,0c-27.2-4.1-55.5-6.5-63.8-5.9c-8.3,0.6-25.4,1.8-38.4,3c-13,1.2-46,5.9-72.6,11.2
	c-27.2,5.3-56.1,8.3-63.8,6.5c-10.6-1.8-18.9,2.4-31.9,17.7c-20.1,22.4-21.8,30.1-8.3,35.4c8.3,3,30.7-5.3,49-18.3
	c7.7-5.9,101-27.7,101-23.6c0,7.7-50.8,67.3-62,73.2c-8.3,4.1-14.8,11.2-14.8,15.4c0,15.3,32.5,15.3,42.5,0
	c2.4-4.1,17.1-3.5,44.3,1.8c21.8,4.1,47.2,8.3,55.5,10c9.4,1.8,20.7-1.8,30.7-9.4c27.7-21.8,18.3-58.4-21.8-83.8l-18.3-11.8l27.7,3
	c14.8,1.2,35.4,8.3,45.5,15.9c17.1,11.8,20.1,12.4,31.9,4.1c22.4-14.8,39.6-33.7,39.6-42.5C582.4,355.2,575.3,354.6,565.9,364z
	 M450.8,465.8c-4.3,2.2-9,3.1-19.4,2.5c-16.3-1-21-4.1-33.6-6c-24.8-3.7-49.3,1.9-49.3,1.9l0,0c20.4-21,34.8-37.7,44.7-49.7
	c5.2-6.3,10.2-12.7,18.6-14.1c12.4-2.1,23.8,8.4,35.9,19.7c11.5,10.7,18,16.7,17.6,25.6C464.9,454.7,457.6,462.3,450.8,465.8z"/>
<path d="M333.9,243.3c11.9-2.4,17.9-3.7,22-7.4c5.2-4.7,7-11.5,7-11.5c0.3-0.8-0.8-2.1-1.8-2.1c-11.2-0.1-16.8-1-25.7-1.6
	c-10.4-0.7-15.7-1-21,0.2c-5,1.2-10.8,2.6-12.9,7.5c-1.5,3.5-0.7,7.8,1.3,10.6c2.8,4.2,7.8,5.1,12.2,5.8
	C317.9,245.3,322.2,245.6,333.9,243.3z"/>
<path d="M333.7,283.9c11.9-2.4,17.9-3.7,21.9-7.4c5.2-4.8,7-11.6,7-11.6c0.2-0.8-1.2-2-2.4-2c-10.8-0.2-16.2-1-25-1.6
	c-10.4-0.7-15.7-1-20.9,0.2c-5,1.2-10.7,2.6-12.9,7.5c-1.5,3.5-0.6,7.8,1.3,10.6c2.8,4.2,7.7,5.1,12.2,5.8
	C317.9,285.9,322.2,286.2,333.7,283.9z"/>
<path d="M472.5,235.9c-12-0.8-18.1-1.2-22.6-4.3c-5.8-4-8.4-10.5-8.4-10.5c-0.4-0.8,0.5-2.2,1.5-2.3c10.9-1.7,16.4-3.3,25-5.1
	c10.1-2.1,15.3-3.1,20.7-2.7c5,0.5,10.9,1.1,13.7,5.6c2,3.3,1.7,7.6,0.2,10.7c-2.2,4.6-6.9,6.1-11.2,7.4
	C488.4,235.7,484.2,236.6,472.5,235.9z"/>
<path d="M475,276.4c-12-0.8-18.1-1.2-22.6-4.3c-5.8-4-8.4-10.5-8.4-10.5c-0.4-0.8,0.5-2.2,1.5-2.3c10.9-1.7,16.4-3.3,25-5.1
	c10.1-2.1,15.3-3.1,20.7-2.7c5,0.5,10.9,1.1,13.7,5.6c2,3.3,1.7,7.6,0.2,10.7c-2.2,4.6-6.9,6.1-11.2,7.4
	C490.9,276.2,486.7,277.2,475,276.4z"/>
<path d="M463.9,311c-0.7,0.1-47.6,0.4-141.3,0.9c-14.8,0.1-32.7,0.1-40,11.5c-4.3,6.6-4.7,16.8,0,23c8.1,10.6,28.8,6.2,50.5,2.6
	c0,0,36.7-6.1,101.6-10.1c59.1-3.7,94,6.1,96.4-2.6c1.6-5.9-13.1-15.5-23.3-20.1C489,307.9,471.5,310.2,463.9,311z"/>
</svg>
