<?xml version="1.0" encoding="utf-8"?>
<!-- Generator: Adobe Illustrator 22.1.0, SVG Export Plug-In . SVG Version: 6.00 Build 0)  -->
<svg version="1.1" id="图层_1" xmlns="http://www.w3.org/2000/svg" xmlns:xlink="http://www.w3.org/1999/xlink" x="0px" y="0px"
	 viewBox="0 0 800 600" style="enable-background:new 0 0 800 600;" xml:space="preserve">
<g>
	<path d="M401.6,117.5c-26.9,7.7-39.5,9.3-50.5,4.9c-8.8-2.7-16.5-3.3-17.6-1.6c-3.8,6.6,17,28,31.3,31.3c7.7,2.2,15.4,7.7,17,12.6
		c1.6,5.5,4.9,12.6,6.6,16.5c3.8,8.2-28,22.5-65.9,28.6c-24.2,3.8-28.6,2.7-35.1-6c-10.4-14.8-15.9-12.6-13.2,5.5
		c1.6,10.4-2.7,24.2-12.1,40.1c-17,29.1-12.6,43.9,9.3,32.4c15.4-8.2,25.8-27.5,25.8-47.2c0-12.1,1.1-12.6,19.2-6.6
		c18.1,5.5,35.1,2.7,67.5-10.4c9.9-4.4,8.2,25.3-2.2,36.8c-8.8,9.9-9.3,9.3-18.1-0.5c-9.9-12.1-29.7-17-32.9-8.2
		c-1.6,2.7,4.9,10.4,14.3,17l17,11L343.4,286c-20.9,14.8-22.5,18.1-9.9,28.6c7.7,6.6,12.1,3.8,32.9-19.8l24.2-27.5v20.3
		c0,39.5,21.4,32.4,25.8-8.8c1.6-13.7,5.5-23.6,7.7-22c2.7,1.6,3.8,4.9,2.7,7.1c-4.4,6.6,34.6,39,46.7,39c7.1,0,10.4-3.8,10.4-11.5
		c0-14.3-14.3-26.4-31.3-26.9c-19.2,0-19.2-8.2,0-15.4c9.9-3.3,20.9-11.5,24.7-18.1c6-9.9,6-13.2-2.2-22
		c-12.1-13.7-18.1-13.2-23.6,1.6c-2.7,7.1-11.5,18.7-19.2,25.8l-14.3,13.2v-22c0-20.9,1.1-22.5,23.6-31.3c22-8.2,75.2-12.6,75.2-5.5
		c0,6-12.6,27.5-23.6,39c-11,12.6-11,12.6-0.5,12.6c6,0,15.9-3.8,22-8.2c5.5-4.4,15.9-8.2,22.5-8.2c12.1,0,29.1-13.2,29.1-22.5
		s-21.4-26.4-40.6-31.8c-13.7-3.3-32.9-3.3-63.7,1.6c-43.4,7.1-43.9,7.1-52.2-5.5c-4.4-7.1-8.2-13.7-8.2-14.8s14.8-5.5,33.5-9.3
		c34.6-7.7,43.9-16.5,32.4-30.2C458.7,103.2,446.1,103.7,401.6,117.5z"/>
	<path d="M451.1,355.8c-48.9,15.9-103.2,28-148.3,32.9c-32.9,3.8-40.6,11-25.8,23.1c13.7,11.5,34.6,12.1,67,1.6
		c18.1-6,33.5-9.9,35.1-8.8c3.3,3.8-28,47.2-39,54.4c-14.8,8.8-12.6,29.7,3.3,34c14.8,3.3,56-9.3,90.1-28l23.6-13.2l11.5,18.7
		c6,10.4,13.7,19.2,17.6,19.2c9.3,0,19.8-11.5,19.8-22.5c0-23.1-51.6-63.1-75.2-58.8c-8.8,1.6-8.8,2.7,3.3,14.8
		c15.9,15.9,9.9,23.1-25.3,26.4l-26.4,2.2l18.1-16.5c10.4-9.9,17.6-22.5,17.6-30.2c0-11.5,3.8-13.7,33.5-19.2
		c18.1-3.8,39.5-5.5,47.8-3.8c31.3,6.6,39-20.9,9.3-32.9C494.4,343.7,486.2,344.3,451.1,355.8z"/>
	<path d="M434.8,315.4c-74.7,18.5-75.3,19.5-83.8,19.8c-13.5,0.6-21.9-1-26.4,4.4c-5.4,6.5-2,20.1,6.5,25.5
		c6.1,3.9,13.4,2.5,37.8-3.9c7.6-2,13.7-3.7,19-5.1c12-3.3,13.8-3.9,26.7-7.6c11.4-3.2,16.9-4.7,26.8-7.6c21.3-6.3,24.1-8,24.6-10.7
		c1-5.1-6.8-11.7-13.9-14.3C444.6,313.1,437.6,314.7,434.8,315.4z"/>
</g>
</svg>
