<?xml version="1.0" encoding="utf-8"?>
<!-- Generator: Adobe Illustrator 22.1.0, SVG Export Plug-In . SVG Version: 6.00 Build 0)  -->
<svg version="1.1" id="图层_1" xmlns="http://www.w3.org/2000/svg" xmlns:xlink="http://www.w3.org/1999/xlink" x="0px" y="0px"
	 viewBox="0 0 800 600" style="enable-background:new 0 0 800 600;" xml:space="preserve">
<path d="M363.9,174.1c-0.6,4.6,0,14.9,0.6,23.4c0.6,9.2-1.7,16-4.6,16s-13.7,5.7-24.6,13.2c-10.9,6.9-30.3,17.2-43.5,22.3
	c-22.3,8.6-25.2,8.6-29.7,0.6c-4-8-5.7-8-10.9,2.3c-5.1,8.6-4.6,14.3,1.1,22.3c7.4,9.7,9.7,10.3,30.3,2.9c12-4.6,32.6-15.4,45.8-24
	c33.7-23.4,38.3-22.3,33.7,11.4c-2.9,22.3-1.7,29.7,5.1,33.2c8,4.6,7.4,6.3-2.9,16c-6.3,5.7-11.4,14.3-11.4,18.9
	c0,6.9,2.9,6.3,13.2-2.9c6.9-6.3,22.9-17.2,36-23.4c43.5-22.3,47.5-44,6.9-40c-20.6,1.7-22.3,1.1-18.9-9.7
	c2.3-6.3,5.1-18.9,6.9-27.5c1.7-9.7,9.2-18.9,18.3-24c21.2-10.3,74.9-20,88.1-14.9c9.7,4,8,6.9-16.6,28.6
	c-15.4,13.7-24,22.9-19.4,21.7c4.6-1.7,18.9-6.3,32-9.7c12.6-3.4,30.9-12.6,39.5-20c15.4-11.4,16-14.3,9.7-28
	c-5.7-13.2-9.7-14.9-36.6-14.9c-16.6,0-44.6,4-61.8,9.2c-56,16-56.6,16-72.1,2.3C368.4,169.5,364.4,167.8,363.9,174.1z"/>
<path d="M403.9,350.2c-11.4,5.1-25.2,13.2-30.3,17.2c-5.7,5.1-16.6,6.9-29.7,4.6c-16.6-2.9-20-1.7-17.2,5.1
	c1.7,5.1,3.4,10.9,3.4,13.7c0,6.9,22.9,9.7,41.2,5.1c14.9-4,14.3-2.9-10.3,29.2c-26.3,34.9-29.7,44.6-18.3,56
	c16,16,50.9,5.1,85.8-26.3c17.2-16,29.7-12,25.2,7.4c-2.3,9.7-0.6,13.7,7.4,16c13.2,3.4,23.4-5.7,23.4-19.4
	c0-21.7-50.3-49.8-60.1-33.7c-2.3,3.4-14.3,11.4-26.9,17.7c-14.3,7.4-21.2,8.6-18.3,4c9.2-14.3,55.5-70.3,60.1-72.1
	c8.6-3.4,5.7-28.6-4-32c-5.1-1.7-9.2-3.4-9.7-2.9C425,339.9,415.3,344.5,403.9,350.2z"/>
<path d="M395.2,112.8c-11-1.8-17.5-1.3-17.5-1.3c-23.9,2.1-32,3.3-32,3.3c-28.6,4.4-36,6.6-40.2,14.3c-0.7,1.3-3,5.4-2,9
	c1.3,4.8,7.6,5.9,11.4,6.4c24.2,2.8,52.4-5,52.4-5c13.7-3.8,28.7-8.7,31.1-2.9c0.7,1.6,0.5,3.3,0.5,3.3c-0.6,5.8-9,8.8-8.8,9.5
	c0.1,0.3,2.5-0.3,5.7-2c3.8-2,7.7-4,10.9-9.1c1.5-2.4,3.2-5.1,3.4-9c0.3-6.4-3.7-10.8-4.5-11.7C402.9,114.5,400,113.6,395.2,112.8z"
	/>
</svg>
